<?xml version="1.0" encoding="UTF-8" standalone="no"?>
<!DOCTYPE svg PUBLIC "-//W3C//DTD SVG 1.1//EN"
 "http://www.w3.org/Graphics/SVG/1.1/DTD/svg11.dtd">
<!-- Generated by graphviz version 2.47.0 (20210316.0004)
 -->
<!-- Title: dependencies Pages: 1 -->
<svg width="1413pt" height="284pt"
 viewBox="0.00 0.00 1413.00 284.00" xmlns="http://www.w3.org/2000/svg" xmlns:xlink="http://www.w3.org/1999/xlink">
<g id="graph0" class="graph" transform="scale(1 1) rotate(0) translate(4 280)">
<title>dependencies</title>
<polygon fill="white" stroke="transparent" points="-4,4 -4,-280 1409,-280 1409,4 -4,4"/>
<text text-anchor="start" x="681.51" y="-42.4" font-family="Times-12" font-weight="bold" font-size="14.00">Legend</text>
<polygon fill="#ffffb3" stroke="transparent" points="468.5,-10 468.5,-30 488.5,-30 488.5,-10 468.5,-10"/>
<text text-anchor="start" x="492.13" y="-15.4" font-family="Times-12" font-size="14.00"> &#160;Declarations</text>
<polygon fill="#8dd3c7" stroke="transparent" points="581.5,-10 581.5,-30 601.5,-30 601.5,-10 581.5,-10"/>
<text text-anchor="start" x="605.23" y="-15.4" font-family="Times-12" font-size="14.00"> &#160;Module</text>
<polygon fill="#80b1d3" stroke="transparent" points="667.5,-10 667.5,-30 687.5,-30 687.5,-10 667.5,-10"/>
<text text-anchor="start" x="691.28" y="-15.4" font-family="Times-12" font-size="14.00"> &#160;Bootstrap</text>
<polygon fill="#fdb462" stroke="transparent" points="764.5,-10 764.5,-30 784.5,-30 784.5,-10 764.5,-10"/>
<text text-anchor="start" x="788.17" y="-15.4" font-family="Times-12" font-size="14.00"> &#160;Providers</text>
<polygon fill="#fb8072" stroke="transparent" points="860.5,-10 860.5,-30 880.5,-30 880.5,-10 860.5,-10"/>
<text text-anchor="start" x="884.23" y="-15.4" font-family="Times-12" font-size="14.00"> &#160;Exports</text>
<g id="clust1" class="cluster">
<title>cluster_AppModule</title>
<polygon fill="none" stroke="black" stroke-dasharray="1,5" points="8,-70 8,-268 1397,-268 1397,-70 8,-70"/>
</g>
<g id="clust2" class="cluster">
<title>cluster_AppModule_declarations</title>
<polygon fill="none" stroke="black" points="168,-78 168,-130 1389,-130 1389,-78 168,-78"/>
</g>
<g id="clust12" class="cluster">
<title>cluster_AppModule_imports</title>
<polygon fill="none" stroke="black" points="16,-78 16,-130 160,-130 160,-78 16,-78"/>
</g>
<g id="clust14" class="cluster">
<title>cluster_AppModule_bootstrap</title>
<polygon fill="none" stroke="black" points="624,-208 624,-260 748,-260 748,-208 624,-208"/>
</g>
<!-- AboutComponent -->
<g id="node1" class="node">
<title>AboutComponent</title>
<polygon fill="#ffffb3" stroke="black" points="1381.33,-122 1264.67,-122 1264.67,-86 1381.33,-86 1381.33,-122"/>
<text text-anchor="middle" x="1323" y="-99.8" font-family="Times,serif" font-size="14.00">AboutComponent</text>
</g>
<!-- AppModule -->
<g id="node10" class="node">
<title>AppModule</title>
<polygon fill="#8dd3c7" stroke="black" points="727.66,-187 724.66,-191 703.66,-191 700.66,-187 644.34,-187 644.34,-151 727.66,-151 727.66,-187"/>
<text text-anchor="middle" x="686" y="-164.8" font-family="Times,serif" font-size="14.00">AppModule</text>
</g>
<!-- AboutComponent&#45;&gt;AppModule -->
<g id="edge1" class="edge">
<title>AboutComponent&#45;&gt;AppModule</title>
<path fill="none" stroke="black" d="M1323,-122.01C1323,-144.49 1323,-180 1323,-180 1323,-180 737.8,-180 737.8,-180"/>
<polygon fill="black" stroke="black" points="737.8,-176.5 727.8,-180 737.8,-183.5 737.8,-176.5"/>
</g>
<!-- AppComponent -->
<g id="node2" class="node">
<title>AppComponent</title>
<polygon fill="#ffffb3" stroke="black" points="1246.94,-122 1141.06,-122 1141.06,-86 1246.94,-86 1246.94,-122"/>
<text text-anchor="middle" x="1194" y="-99.8" font-family="Times,serif" font-size="14.00">AppComponent</text>
</g>
<!-- AppComponent&#45;&gt;AppModule -->
<g id="edge2" class="edge">
<title>AppComponent&#45;&gt;AppModule</title>
<path fill="none" stroke="black" d="M1194,-122.13C1194,-142.57 1194,-173 1194,-173 1194,-173 738,-173 738,-173"/>
<polygon fill="black" stroke="black" points="738,-169.5 728,-173 738,-176.5 738,-169.5"/>
</g>
<!-- DialogLegendComponent -->
<g id="node3" class="node">
<title>DialogLegendComponent</title>
<polygon fill="#ffffb3" stroke="black" points="1123.92,-122 962.08,-122 962.08,-86 1123.92,-86 1123.92,-122"/>
<text text-anchor="middle" x="1043" y="-99.8" font-family="Times,serif" font-size="14.00">DialogLegendComponent</text>
</g>
<!-- DialogLegendComponent&#45;&gt;AppModule -->
<g id="edge3" class="edge">
<title>DialogLegendComponent&#45;&gt;AppModule</title>
<path fill="none" stroke="black" d="M1043,-122.27C1043,-140.56 1043,-166 1043,-166 1043,-166 738,-166 738,-166"/>
<polygon fill="black" stroke="black" points="738,-162.5 728,-166 738,-169.5 738,-162.5"/>
</g>
<!-- FooterComponent -->
<g id="node4" class="node">
<title>FooterComponent</title>
<polygon fill="#ffffb3" stroke="black" points="943.88,-122 826.12,-122 826.12,-86 943.88,-86 943.88,-122"/>
<text text-anchor="middle" x="885" y="-99.8" font-family="Times,serif" font-size="14.00">FooterComponent</text>
</g>
<!-- FooterComponent&#45;&gt;AppModule -->
<g id="edge4" class="edge">
<title>FooterComponent&#45;&gt;AppModule</title>
<path fill="none" stroke="black" d="M885,-122.01C885,-138.05 885,-159 885,-159 885,-159 737.72,-159 737.72,-159"/>
<polygon fill="black" stroke="black" points="737.72,-155.5 727.72,-159 737.72,-162.5 737.72,-155.5"/>
</g>
<!-- FormComponent -->
<g id="node5" class="node">
<title>FormComponent</title>
<polygon fill="#ffffb3" stroke="black" points="807.67,-122 696.33,-122 696.33,-86 807.67,-86 807.67,-122"/>
<text text-anchor="middle" x="752" y="-99.8" font-family="Times,serif" font-size="14.00">FormComponent</text>
</g>
<!-- FormComponent&#45;&gt;AppModule -->
<g id="edge5" class="edge">
<title>FormComponent&#45;&gt;AppModule</title>
<path fill="none" stroke="black" d="M712,-122.11C712,-122.11 712,-140.99 712,-140.99"/>
<polygon fill="black" stroke="black" points="708.5,-140.99 712,-150.99 715.5,-140.99 708.5,-140.99"/>
</g>
<!-- HomeComponent -->
<g id="node6" class="node">
<title>HomeComponent</title>
<polygon fill="#ffffb3" stroke="black" points="677.55,-122 562.45,-122 562.45,-86 677.55,-86 677.55,-122"/>
<text text-anchor="middle" x="620" y="-99.8" font-family="Times,serif" font-size="14.00">HomeComponent</text>
</g>
<!-- HomeComponent&#45;&gt;AppModule -->
<g id="edge6" class="edge">
<title>HomeComponent&#45;&gt;AppModule</title>
<path fill="none" stroke="black" d="M660.97,-122.11C660.97,-122.11 660.97,-140.99 660.97,-140.99"/>
<polygon fill="black" stroke="black" points="657.47,-140.99 660.97,-150.99 664.47,-140.99 657.47,-140.99"/>
</g>
<!-- MapComponent -->
<g id="node7" class="node">
<title>MapComponent</title>
<polygon fill="#ffffb3" stroke="black" points="544.49,-122 437.51,-122 437.51,-86 544.49,-86 544.49,-122"/>
<text text-anchor="middle" x="491" y="-99.8" font-family="Times,serif" font-size="14.00">MapComponent</text>
</g>
<!-- MapComponent&#45;&gt;AppModule -->
<g id="edge7" class="edge">
<title>MapComponent&#45;&gt;AppModule</title>
<path fill="none" stroke="black" d="M491,-122.01C491,-138.05 491,-159 491,-159 491,-159 634.17,-159 634.17,-159"/>
<polygon fill="black" stroke="black" points="634.17,-162.5 644.17,-159 634.17,-155.5 634.17,-162.5"/>
</g>
<!-- MenuComponent -->
<g id="node8" class="node">
<title>MenuComponent</title>
<polygon fill="#ffffb3" stroke="black" points="419.99,-122 306.01,-122 306.01,-86 419.99,-86 419.99,-122"/>
<text text-anchor="middle" x="363" y="-99.8" font-family="Times,serif" font-size="14.00">MenuComponent</text>
</g>
<!-- MenuComponent&#45;&gt;AppModule -->
<g id="edge8" class="edge">
<title>MenuComponent&#45;&gt;AppModule</title>
<path fill="none" stroke="black" d="M363,-122.27C363,-140.56 363,-166 363,-166 363,-166 634.1,-166 634.1,-166"/>
<polygon fill="black" stroke="black" points="634.1,-169.5 644.1,-166 634.1,-162.5 634.1,-169.5"/>
</g>
<!-- PanelComponent -->
<g id="node9" class="node">
<title>PanelComponent</title>
<polygon fill="#ffffb3" stroke="black" points="288.44,-122 175.56,-122 175.56,-86 288.44,-86 288.44,-122"/>
<text text-anchor="middle" x="232" y="-99.8" font-family="Times,serif" font-size="14.00">PanelComponent</text>
</g>
<!-- PanelComponent&#45;&gt;AppModule -->
<g id="edge9" class="edge">
<title>PanelComponent&#45;&gt;AppModule</title>
<path fill="none" stroke="black" d="M232,-122.13C232,-142.57 232,-173 232,-173 232,-173 634.1,-173 634.1,-173"/>
<polygon fill="black" stroke="black" points="634.1,-176.5 644.1,-173 634.1,-169.5 634.1,-176.5"/>
</g>
<!-- AppComponent  -->
<g id="node12" class="node">
<title>AppComponent </title>
<polygon fill="#80b1d3" stroke="black" points="740.44,-252 631.56,-252 631.56,-216 740.44,-216 740.44,-252"/>
<text text-anchor="middle" x="686" y="-229.8" font-family="Times,serif" font-size="14.00">AppComponent </text>
</g>
<!-- AppModule&#45;&gt;AppComponent  -->
<g id="edge11" class="edge">
<title>AppModule&#45;&gt;AppComponent </title>
<path fill="none" stroke="black" stroke-dasharray="1,5" d="M686,-187.11C686,-187.11 686,-205.99 686,-205.99"/>
<polygon fill="black" stroke="black" points="682.5,-205.99 686,-215.99 689.5,-205.99 682.5,-205.99"/>
</g>
<!-- AppRoutingModule -->
<g id="node11" class="node">
<title>AppRoutingModule</title>
<polygon fill="#8dd3c7" stroke="black" points="152.27,-122 149.27,-126 128.27,-126 125.27,-122 23.73,-122 23.73,-86 152.27,-86 152.27,-122"/>
<text text-anchor="middle" x="88" y="-99.8" font-family="Times,serif" font-size="14.00">AppRoutingModule</text>
</g>
<!-- AppRoutingModule&#45;&gt;AppModule -->
<g id="edge10" class="edge">
<title>AppRoutingModule&#45;&gt;AppModule</title>
<path fill="none" stroke="black" d="M88,-122.01C88,-144.49 88,-180 88,-180 88,-180 633.95,-180 633.95,-180"/>
<polygon fill="black" stroke="black" points="633.95,-183.5 643.95,-180 633.95,-176.5 633.95,-183.5"/>
</g>
</g>
</svg>
