<svg id="Warstwa_1" data-name="Warstwa 1" xmlns="http://www.w3.org/2000/svg" viewBox="0 0 494.6 156.91"><defs><style>.cls-1{fill:#fff;}</style></defs><path class="cls-1" d="M444.65,40.28c-.83.41-1.61.87-2.37,1.32V75.15c.76.46,1.54.92,2.37,1.33Z" transform="translate(-2.4 -21.05)"/><path class="cls-1" d="M467.37,80.63a46.47,46.47,0,0,0,6.38-.88V37a45,45,0,0,0-6.38-.88Z" transform="translate(-2.4 -21.05)"/><path class="cls-1" d="M438.56,44.27c-.51.42-1.07.82-1.53,1.27V71.22c.46.45,1,.84,1.53,1.26Z" transform="translate(-2.4 -21.05)"/><path class="cls-1" d="M475.87,37.45V79.3C488.21,76.05,497,67.94,497,58.38s-8.79-17.68-21.13-20.93" transform="translate(-2.4 -21.05)"/><path class="cls-1" d="M464.05,35.9h0a48.52,48.52,0,0,0-6.57.45V80.4a48.51,48.51,0,0,0,6.57.46h0Z" transform="translate(-2.4 -21.05)"/><path class="cls-1" d="M453.3,37.22c-1.29.31-2.52.65-3.73,1.05V78.48c1.21.41,2.44.75,3.73,1Z" transform="translate(-2.4 -21.05)"/><polygon class="cls-1" points="72.91 1.36 72.91 42.48 30.92 1.36 0 1.36 0 73.68 27.41 73.68 27.41 29.84 72.72 73.68 100.33 73.68 100.33 1.36 72.91 1.36"/><path class="cls-1" d="M160.17,96.1C115.64,96.1,109,73.45,109,59.74V56.92c0-13.8,6-35.87,51.13-35.87H164c44,0,50.26,20,50.35,29.26v1.26H185.64c-.49-1.84-2.92-11.08-23.82-11.08-19.93,0-24.2,8.85-24.2,16.91v1.17c0,7.78,4.85,18,24.3,18,21.28,0,23.43-10.2,23.81-11.86h28.58v1.56c0,9.53-6.71,29.85-50.35,29.85Z" transform="translate(-2.4 -21.05)"/><path class="cls-1" d="M247.94,65.28V77.72h33.84c7.19,0,8.55-3.4,8.55-6.22v-.3c0-3-1.46-5.92-8.55-5.92Zm0-26.44V49H280c5.74,0,7.4-2.33,7.4-5V43.8c0-2.93-1.66-5-7.4-5Zm-27.6-16.43h68c21.1,0,26.74,8.06,26.74,16.43v1.07c0,8.94-7.68,13.12-12.44,14.19,6.41,1.46,16.62,5.83,16.62,18.57v1.16c0,11.38-7,20.9-30.53,20.9H220.34Z" transform="translate(-2.4 -21.05)"/><path class="cls-1" d="M352.15,52.45h31.69c6,0,8.37-2.73,8.37-6.23v-.09c0-3.41-2.25-6.12-8.37-6.12H352.15Zm0,42.28h-27.6V22.41h65.71c21.19,0,30.42,6.8,30.42,18.56V42c0,10.5-9.13,14.78-14.57,16.15,8.84,2,14.87,7.86,14.87,17.2V86.08c0,5.06.68,6.9,1.36,8.17v.48H394.15c-.59-.77-.87-1.75-.87-3.78V82.49c0-8.37-3.8-12.55-14.68-12.55H352.15Z" transform="translate(-2.4 -21.05)"/><polygon class="cls-1" points="12.05 102.65 12.05 116.73 11.87 116.73 2.09 102.65 0 102.65 0 120.54 2.16 120.54 2.16 106.49 2.33 106.49 12.09 120.54 14.19 120.54 14.19 102.65 12.05 102.65"/><path class="cls-1" d="M24.89,140.05a4.08,4.08,0,0,0,2.06-.48,3.32,3.32,0,0,0,1.28-1.24,3.26,3.26,0,0,0,.44-1.6v-1.88a1.14,1.14,0,0,1-.58.28,7.67,7.67,0,0,1-1,.22l-1.12.16-.86.1a9.43,9.43,0,0,0-1.5.34,2.54,2.54,0,0,0-1.12.69,2,2,0,0,0,.38,2.86,3.55,3.55,0,0,0,2,.55m-.32,1.85a5.43,5.43,0,0,1-2.31-.48,4,4,0,0,1-1.65-1.4,4,4,0,0,1-.61-2.24,3.36,3.36,0,0,1,.46-1.87,3.06,3.06,0,0,1,1.21-1.13,6.25,6.25,0,0,1,1.67-.61,17.32,17.32,0,0,1,1.86-.34l2-.24a2.68,2.68,0,0,0,1.12-.29.73.73,0,0,0,.36-.7v-.06a2.81,2.81,0,0,0-.71-2,2.9,2.9,0,0,0-2.13-.72,3.63,3.63,0,0,0-3.49,2l-2-.7a4.79,4.79,0,0,1,1.4-1.9,5.44,5.44,0,0,1,1.92-1,8.29,8.29,0,0,1,2.07-.27,8.61,8.61,0,0,1,1.48.15,4.67,4.67,0,0,1,1.63.63,3.64,3.64,0,0,1,1.32,1.42,5.29,5.29,0,0,1,.52,2.55v8.84h-2v-1.82h-.11a4.06,4.06,0,0,1-.7.94,4,4,0,0,1-1.3.84,5.1,5.1,0,0,1-2,.35" transform="translate(-2.4 -21.05)"/><path class="cls-1" d="M35.4,125h2.07v12.79a2.6,2.6,0,0,0,.25,1.3,1.27,1.27,0,0,0,.66.58,2.5,2.5,0,0,0,.86.14,2.86,2.86,0,0,0,.56,0,3,3,0,0,0,.35-.07l.42,1.85a3,3,0,0,1-.58.17,4.31,4.31,0,0,1-1,.08,4.12,4.12,0,0,1-1.71-.37A3.46,3.46,0,0,1,36,140.25a3.27,3.27,0,0,1-.55-1.94Zm4.93,5H33.38v-1.74h6.95Z" transform="translate(-2.4 -21.05)"/><path class="cls-1" d="M43.43,128.18h2.06V141.6H43.43Zm1-2.24a1.46,1.46,0,0,1-1-.41,1.31,1.31,0,0,1-.43-1,1.33,1.33,0,0,1,.43-1,1.45,1.45,0,0,1,1-.4,1.42,1.42,0,0,1,1,.4,1.34,1.34,0,0,1,.44,1,1.32,1.32,0,0,1-.44,1,1.43,1.43,0,0,1-1,.41" transform="translate(-2.4 -21.05)"/><path class="cls-1" d="M54.71,140a3.56,3.56,0,0,0,2.28-.7,4.24,4.24,0,0,0,1.31-1.86,7.51,7.51,0,0,0,0-5A4.16,4.16,0,0,0,57,130.57a4,4,0,0,0-4.55,0,4.16,4.16,0,0,0-1.31,1.87,7.35,7.35,0,0,0,0,5,4.24,4.24,0,0,0,1.31,1.86,3.57,3.57,0,0,0,2.27.7m0,1.86a5.73,5.73,0,0,1-3.17-.87,5.8,5.8,0,0,1-2.14-2.42,8.09,8.09,0,0,1-.76-3.63,8.21,8.21,0,0,1,.76-3.65,5.65,5.65,0,0,1,5.31-3.3A5.63,5.63,0,0,1,60,131.3a8.21,8.21,0,0,1,.76,3.65,8.09,8.09,0,0,1-.76,3.63,5.68,5.68,0,0,1-5.32,3.29" transform="translate(-2.4 -21.05)"/><path class="cls-1" d="M66,133.52v8.07H63.94V128.18h2v2.09h.17a3.85,3.85,0,0,1,1.43-1.64A4.49,4.49,0,0,1,70,128a5,5,0,0,1,2.38.56A3.69,3.69,0,0,1,74,130.24a6,6,0,0,1,.58,2.83v8.52H72.49v-8.38a3.49,3.49,0,0,0-.82-2.47,2.9,2.9,0,0,0-2.25-.89,3.47,3.47,0,0,0-1.75.43,3,3,0,0,0-1.22,1.25,4.07,4.07,0,0,0-.45,2" transform="translate(-2.4 -21.05)"/><path class="cls-1" d="M82.59,140.05a4.1,4.1,0,0,0,2.06-.48,3.23,3.23,0,0,0,1.27-1.24,3.16,3.16,0,0,0,.44-1.6v-1.88a1.1,1.1,0,0,1-.57.28,8,8,0,0,1-1,.22l-1.12.16-.86.1a9.18,9.18,0,0,0-1.5.34,2.54,2.54,0,0,0-1.12.69,1.78,1.78,0,0,0-.42,1.25,1.83,1.83,0,0,0,.8,1.61,3.55,3.55,0,0,0,2,.55m-.32,1.85a5.43,5.43,0,0,1-2.31-.48,4,4,0,0,1-1.65-1.4,4,4,0,0,1-.61-2.24,3.45,3.45,0,0,1,.45-1.87,3.2,3.2,0,0,1,1.21-1.13,6.39,6.39,0,0,1,1.69-.61,16.71,16.71,0,0,1,1.85-.34l2-.24A2.63,2.63,0,0,0,86,133.3a.71.71,0,0,0,.36-.7v-.06a2.77,2.77,0,0,0-.71-2,2.86,2.86,0,0,0-2.12-.72,3.83,3.83,0,0,0-2.32.65A3.87,3.87,0,0,0,80,131.84l-2-.7a4.79,4.79,0,0,1,1.4-1.9,5.36,5.36,0,0,1,1.92-1,8.23,8.23,0,0,1,2.07-.27,8.61,8.61,0,0,1,1.48.15,4.67,4.67,0,0,1,1.63.63,3.64,3.64,0,0,1,1.32,1.42,5.29,5.29,0,0,1,.52,2.55v8.84H86.36v-1.82h-.1a4.06,4.06,0,0,1-.7.94,4.17,4.17,0,0,1-1.3.84,5.1,5.1,0,0,1-2,.35" transform="translate(-2.4 -21.05)"/><rect class="cls-1" x="89.79" y="102.65" width="2.06" height="17.88"/><path class="cls-1" d="M119.61,129.3h-2.16a4.79,4.79,0,0,0-.68-1.65,4.62,4.62,0,0,0-1.14-1.19,5.22,5.22,0,0,0-1.5-.73,6.16,6.16,0,0,0-1.72-.24,5.4,5.4,0,0,0-2.93.82,5.67,5.67,0,0,0-2.09,2.42,10.34,10.34,0,0,0,0,7.83,5.7,5.7,0,0,0,2.09,2.43,5.48,5.48,0,0,0,2.93.81,6.16,6.16,0,0,0,1.72-.24,5,5,0,0,0,1.5-.73,4.62,4.62,0,0,0,1.14-1.19,4.82,4.82,0,0,0,.68-1.64h2.16a7.29,7.29,0,0,1-.89,2.46,6.59,6.59,0,0,1-1.61,1.83,7.1,7.1,0,0,1-2.15,1.16,8.15,8.15,0,0,1-2.55.38,7.42,7.42,0,0,1-6.87-4.3,12.32,12.32,0,0,1,0-9.77,7.53,7.53,0,0,1,2.81-3.18,7.42,7.42,0,0,1,4.06-1.12,7.88,7.88,0,0,1,2.55.4,7,7,0,0,1,2.15,1.14,6.78,6.78,0,0,1,1.61,1.84,7,7,0,0,1,.89,2.46" transform="translate(-2.4 -21.05)"/><path class="cls-1" d="M128.45,141.87a6.2,6.2,0,0,1-3.34-.87,5.65,5.65,0,0,1-2.16-2.4,8,8,0,0,1-.76-3.62,8.21,8.21,0,0,1,.76-3.63,5.92,5.92,0,0,1,2.11-2.46,5.72,5.72,0,0,1,3.18-.89,6.41,6.41,0,0,1,2.06.35,5.12,5.12,0,0,1,1.86,1.13,5.24,5.24,0,0,1,1.34,2.07,8.78,8.78,0,0,1,.5,3.15v.88H123.66V133.8h8.24a4.43,4.43,0,0,0-.45-2,3.37,3.37,0,0,0-1.27-1.4,3.52,3.52,0,0,0-1.94-.52,3.76,3.76,0,0,0-2.13.61,4.06,4.06,0,0,0-1.38,1.58,4.75,4.75,0,0,0-.47,2.07v1.2a5.57,5.57,0,0,0,.53,2.56,3.74,3.74,0,0,0,1.47,1.6,4.75,4.75,0,0,0,3.66.31,3,3,0,0,0,1.14-.7,3.35,3.35,0,0,0,.74-1.16l2,.56a4.31,4.31,0,0,1-1,1.77,5.27,5.27,0,0,1-1.84,1.19,6.81,6.81,0,0,1-2.45.43" transform="translate(-2.4 -21.05)"/><path class="cls-1" d="M139.2,133.52v8.07h-2V128.18h2v2.09h.18a3.78,3.78,0,0,1,1.43-1.64,4.45,4.45,0,0,1,2.48-.63,4.9,4.9,0,0,1,2.38.56,3.76,3.76,0,0,1,1.59,1.68,6.17,6.17,0,0,1,.57,2.83v8.52H145.7v-8.38a3.49,3.49,0,0,0-.82-2.47,2.94,2.94,0,0,0-2.26-.89,3.49,3.49,0,0,0-1.75.43,3.06,3.06,0,0,0-1.22,1.25,4.07,4.07,0,0,0-.45,2" transform="translate(-2.4 -21.05)"/><path class="cls-1" d="M152.43,125h2.07v12.79a2.59,2.59,0,0,0,.26,1.3,1.27,1.27,0,0,0,.66.58,2.46,2.46,0,0,0,.86.14,2.86,2.86,0,0,0,.56,0l.35-.07.42,1.85a3.09,3.09,0,0,1-.59.17,4.2,4.2,0,0,1-1,.08,4.15,4.15,0,0,1-1.71-.37,3.53,3.53,0,0,1-1.38-1.14,3.34,3.34,0,0,1-.55-1.94Zm4.94,5h-7v-1.74h7Z" transform="translate(-2.4 -21.05)"/><path class="cls-1" d="M160.47,141.59V128.17h2v2h.13a3.19,3.19,0,0,1,1.33-1.61,3.84,3.84,0,0,1,2.16-.62h.58l.51,0v2.1l-.48-.09a6.39,6.39,0,0,0-.78,0,3.75,3.75,0,0,0-1.74.4,3,3,0,0,0-1.2,1.13,2.89,2.89,0,0,0-.45,1.61v8.49Z" transform="translate(-2.4 -21.05)"/><path class="cls-1" d="M174.83,141.87a6.2,6.2,0,0,1-3.34-.87,5.72,5.72,0,0,1-2.16-2.4,8,8,0,0,1-.76-3.62,8.21,8.21,0,0,1,.76-3.63,5.92,5.92,0,0,1,2.11-2.46,5.72,5.72,0,0,1,3.18-.89,6.52,6.52,0,0,1,2.07.35,5.15,5.15,0,0,1,3.19,3.2,8.78,8.78,0,0,1,.5,3.15v.88H170.05V133.8h8.23a4.3,4.3,0,0,0-.45-2,3.37,3.37,0,0,0-1.27-1.4,3.52,3.52,0,0,0-1.94-.52,3.76,3.76,0,0,0-2.13.61,4.06,4.06,0,0,0-1.38,1.58,4.75,4.75,0,0,0-.47,2.07v1.2a5.57,5.57,0,0,0,.53,2.56,3.74,3.74,0,0,0,1.47,1.6,4.75,4.75,0,0,0,3.66.31,3,3,0,0,0,1.14-.7,3.21,3.21,0,0,0,.74-1.16l2,.56a4.31,4.31,0,0,1-1,1.77,5.18,5.18,0,0,1-1.84,1.19,6.81,6.81,0,0,1-2.45.43" transform="translate(-2.4 -21.05)"/><path class="cls-1" d="M191.34,141.59V126.33a3.21,3.21,0,0,1,.55-1.93,3.49,3.49,0,0,1,1.4-1.15,4.55,4.55,0,0,1,1.83-.39,5.23,5.23,0,0,1,1.24.13,6.67,6.67,0,0,1,.72.22l-.6,1.79-.43-.13a2.39,2.39,0,0,0-.72-.09,1.84,1.84,0,0,0-1.47.53,2.2,2.2,0,0,0-.45,1.5v14.78Zm5.07-11.67h-7.23v-1.74h7.23Z" transform="translate(-2.4 -21.05)"/><path class="cls-1" d="M204.2,140a3.53,3.53,0,0,0,2.27-.7,4.34,4.34,0,0,0,1.32-1.86,7.51,7.51,0,0,0,0-5,4.25,4.25,0,0,0-1.32-1.87,3.94,3.94,0,0,0-4.54,0,4.25,4.25,0,0,0-1.32,1.87,7.51,7.51,0,0,0,0,5,4.34,4.34,0,0,0,1.32,1.86,3.53,3.53,0,0,0,2.27.7m0,1.86a5.66,5.66,0,0,1-5.31-3.29,8.09,8.09,0,0,1-.77-3.63,8.21,8.21,0,0,1,.77-3.65,5.86,5.86,0,0,1,10.62,0,8.21,8.21,0,0,1,.76,3.65,8.09,8.09,0,0,1-.76,3.63,5.66,5.66,0,0,1-5.31,3.29" transform="translate(-2.4 -21.05)"/><path class="cls-1" d="M213.42,141.59V128.17h2v2h.14a3.19,3.19,0,0,1,1.33-1.61A3.84,3.84,0,0,1,219,128h.57l.52,0v2.1l-.48-.09a6.39,6.39,0,0,0-.78,0,3.72,3.72,0,0,0-1.74.4,3.1,3.1,0,0,0-1.65,2.74v8.49Z" transform="translate(-2.4 -21.05)"/><path class="cls-1" d="M238.18,133.55l4.4,8h-2.51l-4.33-8Zm-8.41,8V123.71h6a7.3,7.3,0,0,1,3.45.71,4.52,4.52,0,0,1,2,2,6.42,6.42,0,0,1,0,5.63,4.58,4.58,0,0,1-2,1.91,7.33,7.33,0,0,1-3.42.69H231v-2h4.82a5.37,5.37,0,0,0,2.31-.41,2.75,2.75,0,0,0,1.28-1.19,4,4,0,0,0,.39-1.85,4.1,4.1,0,0,0-.4-1.88,2.71,2.71,0,0,0-1.28-1.24,5.18,5.18,0,0,0-2.33-.44h-3.81v16Z" transform="translate(-2.4 -21.05)"/><path class="cls-1" d="M250.69,141.87a6.18,6.18,0,0,1-3.34-.87,5.78,5.78,0,0,1-2.16-2.4,8,8,0,0,1-.76-3.62,8.21,8.21,0,0,1,.76-3.63,6,6,0,0,1,2.11-2.46,5.72,5.72,0,0,1,3.18-.89,6.41,6.41,0,0,1,2.06.35,5.24,5.24,0,0,1,1.87,1.13,5.33,5.33,0,0,1,1.33,2.07,8.78,8.78,0,0,1,.5,3.15v.88H245.9V133.8h8.24a4.3,4.3,0,0,0-.45-2,3.37,3.37,0,0,0-1.27-1.4,3.52,3.52,0,0,0-1.94-.52,3.76,3.76,0,0,0-2.13.61A4.06,4.06,0,0,0,247,132a4.75,4.75,0,0,0-.47,2.07v1.2a5.57,5.57,0,0,0,.53,2.56,3.74,3.74,0,0,0,1.47,1.6,4.75,4.75,0,0,0,3.66.31,3,3,0,0,0,1.14-.7,3.21,3.21,0,0,0,.74-1.16l2,.56a4.31,4.31,0,0,1-1,1.77,5.18,5.18,0,0,1-1.84,1.19,6.81,6.81,0,0,1-2.45.43" transform="translate(-2.4 -21.05)"/><path class="cls-1" d="M268.88,131.18l-1.84.52a3.61,3.61,0,0,0-.52-.9,2.58,2.58,0,0,0-.91-.73,3.36,3.36,0,0,0-1.48-.29,3.59,3.59,0,0,0-2.05.56,1.7,1.7,0,0,0-.81,1.43,1.42,1.42,0,0,0,.56,1.21,4.6,4.6,0,0,0,1.74.75l2,.48a5.61,5.61,0,0,1,2.69,1.34,3.15,3.15,0,0,1,.88,2.3,3.4,3.4,0,0,1-.66,2.06,4.46,4.46,0,0,1-1.84,1.44,6.7,6.7,0,0,1-2.74.52,6.07,6.07,0,0,1-3.4-.89,4,4,0,0,1-1.7-2.6l2-.49a2.67,2.67,0,0,0,1.05,1.62,3.55,3.55,0,0,0,2.05.54,3.8,3.8,0,0,0,2.3-.62A1.8,1.8,0,0,0,267,138a1.56,1.56,0,0,0-.49-1.16,3,3,0,0,0-1.5-.72l-2.24-.53a5.31,5.31,0,0,1-2.7-1.35,3.27,3.27,0,0,1-.86-2.31,3.35,3.35,0,0,1,.64-2,4.28,4.28,0,0,1,1.76-1.37,5.94,5.94,0,0,1,2.52-.5,5,5,0,0,1,3.13.87,4.79,4.79,0,0,1,1.62,2.31" transform="translate(-2.4 -21.05)"/><path class="cls-1" d="M277.86,141.87a6.2,6.2,0,0,1-3.34-.87,5.78,5.78,0,0,1-2.16-2.4,8.18,8.18,0,0,1-.76-3.62,8.35,8.35,0,0,1,.76-3.63,5.94,5.94,0,0,1,2.12-2.46,5.66,5.66,0,0,1,3.17-.89,6.52,6.52,0,0,1,2.07.35,5.15,5.15,0,0,1,3.19,3.2,8.78,8.78,0,0,1,.5,3.15v.88H273.08V133.8h8.23a4.42,4.42,0,0,0-.44-2,3.46,3.46,0,0,0-1.28-1.4,3.52,3.52,0,0,0-1.94-.52,3.7,3.7,0,0,0-2.12.61,4.08,4.08,0,0,0-1.39,1.58,4.75,4.75,0,0,0-.47,2.07v1.2a5.57,5.57,0,0,0,.53,2.56,3.74,3.74,0,0,0,1.47,1.6,4.75,4.75,0,0,0,3.66.31,3,3,0,0,0,1.14-.7,3.23,3.23,0,0,0,.75-1.16l2,.56a4.31,4.31,0,0,1-1.05,1.77,5,5,0,0,1-1.84,1.19,6.77,6.77,0,0,1-2.45.43" transform="translate(-2.4 -21.05)"/><path class="cls-1" d="M290.82,140.05a4.13,4.13,0,0,0,2.06-.48,3.23,3.23,0,0,0,1.27-1.24,3.15,3.15,0,0,0,.43-1.6v-1.88a1.06,1.06,0,0,1-.56.28,8,8,0,0,1-1,.22l-1.12.16-.87.1a9.68,9.68,0,0,0-1.5.34,2.56,2.56,0,0,0-1.11.69,1.74,1.74,0,0,0-.42,1.25,1.8,1.8,0,0,0,.8,1.61,3.55,3.55,0,0,0,2,.55m-.32,1.85a5.43,5.43,0,0,1-2.31-.48,4,4,0,0,1-1.65-1.4,4,4,0,0,1-.61-2.24,3.45,3.45,0,0,1,.45-1.87,3.06,3.06,0,0,1,1.21-1.13,6.45,6.45,0,0,1,1.68-.61,16.88,16.88,0,0,1,1.86-.34l2-.24a2.64,2.64,0,0,0,1.12-.29.71.71,0,0,0,.35-.7v-.06a2.76,2.76,0,0,0-.7-2,2.86,2.86,0,0,0-2.12-.72,3.78,3.78,0,0,0-2.32.65,3.87,3.87,0,0,0-1.17,1.38l-2-.7a4.79,4.79,0,0,1,1.4-1.9,5.36,5.36,0,0,1,1.92-1,8.21,8.21,0,0,1,2.06-.27,8.62,8.62,0,0,1,1.49.15,4.75,4.75,0,0,1,1.63.63,3.55,3.55,0,0,1,1.31,1.42,5.29,5.29,0,0,1,.53,2.55v8.84h-2.07v-1.82h-.09a4.06,4.06,0,0,1-.7.94,4.17,4.17,0,0,1-1.3.84,5.13,5.13,0,0,1-2,.35" transform="translate(-2.4 -21.05)"/><path class="cls-1" d="M300.42,141.59V128.17h2v2h.15a3.21,3.21,0,0,1,1.31-1.61,3.91,3.91,0,0,1,2.18-.62h.56l.51,0v2.1l-.47-.09a6.26,6.26,0,0,0-.78,0,3.78,3.78,0,0,0-1.74.4,3,3,0,0,0-1.21,1.13,3,3,0,0,0-.44,1.61v8.49Z" transform="translate(-2.4 -21.05)"/><path class="cls-1" d="M314.6,141.87a5.86,5.86,0,0,1-3.25-.89,5.73,5.73,0,0,1-2.09-2.46,8.28,8.28,0,0,1-.74-3.57,8.12,8.12,0,0,1,.76-3.61,5.89,5.89,0,0,1,2.11-2.45,5.66,5.66,0,0,1,3.17-.89,6.23,6.23,0,0,1,2.56.52A5.09,5.09,0,0,1,319,130a4.57,4.57,0,0,1,.89,2.2h-2.06a3.09,3.09,0,0,0-1-1.62,3.16,3.16,0,0,0-2.17-.72,3.67,3.67,0,0,0-2.11.63,4.06,4.06,0,0,0-1.41,1.75,6.56,6.56,0,0,0-.5,2.65,6.83,6.83,0,0,0,.5,2.71,4.06,4.06,0,0,0,1.39,1.79,3.62,3.62,0,0,0,2.13.63,3.8,3.8,0,0,0,1.46-.27,3.06,3.06,0,0,0,1.1-.81,2.94,2.94,0,0,0,.65-1.25h2.06a4.69,4.69,0,0,1-.86,2.13,4.82,4.82,0,0,1-1.8,1.5,5.83,5.83,0,0,1-2.61.56" transform="translate(-2.4 -21.05)"/><path class="cls-1" d="M324.94,133.52v8.07h-2.06V123.7h2.06v6.57h.18a3.71,3.71,0,0,1,1.41-1.65,4.6,4.6,0,0,1,2.53-.62,5,5,0,0,1,2.4.55,3.7,3.7,0,0,1,1.6,1.67,6.1,6.1,0,0,1,.57,2.85v8.52h-2.05v-8.38a3.43,3.43,0,0,0-.84-2.48,3,3,0,0,0-2.27-.88,3.74,3.74,0,0,0-1.82.43,3.07,3.07,0,0,0-1.25,1.25,4,4,0,0,0-.46,2" transform="translate(-2.4 -21.05)"/><path class="cls-1" d="M7.64,171.39a4,4,0,0,0,2.07-.48,3.22,3.22,0,0,0,1.7-2.83v-1.89a1.06,1.06,0,0,1-.56.28,9.8,9.8,0,0,1-1,.23l-1.11.15-.86.11a7.49,7.49,0,0,0-1.5.34,2.49,2.49,0,0,0-1.12.69,1.71,1.71,0,0,0-.42,1.24,1.85,1.85,0,0,0,.79,1.62,3.57,3.57,0,0,0,2,.54m-.31,1.86A5.47,5.47,0,0,1,5,172.76a3.91,3.91,0,0,1-1.65-1.41,4,4,0,0,1-.61-2.22,3.45,3.45,0,0,1,.46-1.88,3.37,3.37,0,0,1,1.21-1.13,6.71,6.71,0,0,1,1.68-.62c.62-.13,1.24-.24,1.86-.32.81-.11,1.48-.19,2-.24a3,3,0,0,0,1.11-.29.74.74,0,0,0,.35-.69v-.07a2.73,2.73,0,0,0-.7-2,2.84,2.84,0,0,0-2.13-.72,3.67,3.67,0,0,0-2.31.65,3.75,3.75,0,0,0-1.18,1.38l-1.95-.7a4.67,4.67,0,0,1,1.4-1.91,5.34,5.34,0,0,1,1.92-1,8.19,8.19,0,0,1,2.05-.27,8.53,8.53,0,0,1,1.49.15,4.53,4.53,0,0,1,1.64.63A3.56,3.56,0,0,1,13,161.55a5.25,5.25,0,0,1,.52,2.54v8.84H11.41v-1.81h-.1a3.53,3.53,0,0,1-.7.93,4,4,0,0,1-1.3.85,5,5,0,0,1-2,.35" transform="translate(-2.4 -21.05)"/><path class="cls-1" d="M19.31,164.86v8.07H17.25V159.52h2v2.1h.18A3.79,3.79,0,0,1,20.84,160a4.49,4.49,0,0,1,2.49-.62,5,5,0,0,1,2.38.55,3.74,3.74,0,0,1,1.58,1.68,6.06,6.06,0,0,1,.58,2.83v8.52H25.8v-8.38a3.49,3.49,0,0,0-.81-2.47,2.94,2.94,0,0,0-2.26-.89,3.47,3.47,0,0,0-1.75.44,2.92,2.92,0,0,0-1.22,1.24,4.09,4.09,0,0,0-.45,2" transform="translate(-2.4 -21.05)"/><path class="cls-1" d="M37,171.36a3.37,3.37,0,0,0,2.1-.65,4.06,4.06,0,0,0,1.3-1.81,8.32,8.32,0,0,0,0-5.31,4,4,0,0,0-1.29-1.76A3.5,3.5,0,0,0,37,161.2a3.46,3.46,0,0,0-2.17.66,4,4,0,0,0-1.3,1.81,7,7,0,0,0-.44,2.56,7.37,7.37,0,0,0,.44,2.59,4.08,4.08,0,0,0,1.31,1.85,3.31,3.31,0,0,0,2.16.69m-.28,1.85a5.32,5.32,0,0,1-3-.85,5.62,5.62,0,0,1-2-2.41,9.62,9.62,0,0,1,0-7.35,5.58,5.58,0,0,1,2-2.41,5.36,5.36,0,0,1,3-.84,4.19,4.19,0,0,1,2.07.43,3.63,3.63,0,0,1,1.17,1c.27.36.48.66.63.89h.18v-6.6h2.06v17.88h-2v-2.06h-.24c-.15.25-.37.56-.64.92a3.92,3.92,0,0,1-1.2,1,4.25,4.25,0,0,1-2.07.43" transform="translate(-2.4 -21.05)"/><path class="cls-1" d="M56.26,171h3.21a7.18,7.18,0,0,0,3.68-.86,5.24,5.24,0,0,0,2.17-2.43,10.17,10.17,0,0,0,0-7.49,5.31,5.31,0,0,0-2.11-2.42,6.86,6.86,0,0,0-3.51-.83H56.26Zm3.35,1.92H54.09V155.05h5.77a8.78,8.78,0,0,1,4.45,1.07,7.13,7.13,0,0,1,2.84,3.06,12.16,12.16,0,0,1,0,9.59,7,7,0,0,1-2.9,3.08,9.24,9.24,0,0,1-4.63,1.08" transform="translate(-2.4 -21.05)"/><path class="cls-1" d="M77.11,173.21a6.25,6.25,0,0,1-3.33-.86,5.61,5.61,0,0,1-2.17-2.4,8.27,8.27,0,0,1-.75-3.62,8.4,8.4,0,0,1,.75-3.64,5.85,5.85,0,0,1,2.12-2.45,5.64,5.64,0,0,1,3.18-.89,6.15,6.15,0,0,1,2.06.35,5.15,5.15,0,0,1,1.86,1.13,5.5,5.5,0,0,1,1.34,2.06,8.8,8.8,0,0,1,.5,3.16v.87H72.33v-1.78h8.24a4.41,4.41,0,0,0-.45-2,3.44,3.44,0,0,0-1.27-1.4,3.54,3.54,0,0,0-1.94-.52,3.64,3.64,0,0,0-2.13.61,4,4,0,0,0-1.38,1.57,4.64,4.64,0,0,0-.48,2.08v1.19a5.58,5.58,0,0,0,.53,2.57,3.81,3.81,0,0,0,1.47,1.6,4.44,4.44,0,0,0,2.19.54,4.49,4.49,0,0,0,1.47-.23,3,3,0,0,0,1.14-.7,3.23,3.23,0,0,0,.75-1.16l2,.56a4.32,4.32,0,0,1-1,1.78,5.34,5.34,0,0,1-1.84,1.18,6.73,6.73,0,0,1-2.45.42" transform="translate(-2.4 -21.05)"/><polygon class="cls-1" points="91.72 138.46 88.02 149.16 87.88 149.16 84.17 138.46 81.94 138.46 86.9 151.88 89 151.88 93.96 138.46 91.72 138.46"/><path class="cls-1" d="M104.21,173.21a6.31,6.31,0,0,1-3.34-.86,5.72,5.72,0,0,1-2.16-2.4,8.27,8.27,0,0,1-.75-3.62,8.4,8.4,0,0,1,.75-3.64,5.85,5.85,0,0,1,2.12-2.45,5.64,5.64,0,0,1,3.18-.89,6.15,6.15,0,0,1,2.06.35,5.27,5.27,0,0,1,1.87,1.13,5.47,5.47,0,0,1,1.32,2.06,8.57,8.57,0,0,1,.51,3.16v.87H99.43v-1.78h8.24a4.41,4.41,0,0,0-.45-2,3.4,3.4,0,0,0-1.28-1.4,3.48,3.48,0,0,0-1.93-.52,3.64,3.64,0,0,0-2.13.61,4,4,0,0,0-1.38,1.57,4.64,4.64,0,0,0-.48,2.08v1.19a5.58,5.58,0,0,0,.53,2.57,3.81,3.81,0,0,0,1.47,1.6,4.44,4.44,0,0,0,2.19.54,4.53,4.53,0,0,0,1.47-.23,3,3,0,0,0,1.14-.7,3.1,3.1,0,0,0,.75-1.16l2,.56a4.32,4.32,0,0,1-1,1.78,5.25,5.25,0,0,1-1.84,1.18,6.73,6.73,0,0,1-2.45.42" transform="translate(-2.4 -21.05)"/><rect class="cls-1" x="110.52" y="133.99" width="2.06" height="17.88"/><path class="cls-1" d="M124.19,171.36a3.48,3.48,0,0,0,2.27-.71,4.19,4.19,0,0,0,1.32-1.85,7.51,7.51,0,0,0,0-5,4.34,4.34,0,0,0-1.32-1.88,4,4,0,0,0-4.54,0,4.34,4.34,0,0,0-1.32,1.88,7.51,7.51,0,0,0,0,5,4.19,4.19,0,0,0,1.32,1.85,3.48,3.48,0,0,0,2.27.71m0,1.85a5.63,5.63,0,0,1-5.31-3.28,9.12,9.12,0,0,1,0-7.29,5.92,5.92,0,0,1,2.12-2.43,6.35,6.35,0,0,1,6.38,0,5.92,5.92,0,0,1,2.12,2.43,9,9,0,0,1,0,7.29,5.63,5.63,0,0,1-5.31,3.28" transform="translate(-2.4 -21.05)"/><path class="cls-1" d="M135.44,166.22a7.44,7.44,0,0,0,.44,2.69,4.08,4.08,0,0,0,1.3,1.8,3.44,3.44,0,0,0,2.1.66,3.37,3.37,0,0,0,2.16-.7,4.11,4.11,0,0,0,1.31-1.84,7.44,7.44,0,0,0,.44-2.61,7,7,0,0,0-.43-2.54,4,4,0,0,0-1.31-1.82,3.86,3.86,0,0,0-4.29,0,4,4,0,0,0-1.29,1.75,7.36,7.36,0,0,0-.43,2.63m-2,11.74V159.52h2v2.14h.24c.15-.25.36-.53.63-.9a3.63,3.63,0,0,1,1.17-1,4.09,4.09,0,0,1,2.07-.43,5.36,5.36,0,0,1,3,.84,5.66,5.66,0,0,1,2,2.41,9.74,9.74,0,0,1,0,7.35,5.65,5.65,0,0,1-2,2.41,5.24,5.24,0,0,1-3,.85,4.25,4.25,0,0,1-2.07-.43,3.9,3.9,0,0,1-1.2-1c-.27-.38-.49-.69-.64-.93h-.18V178Z" transform="translate(-2.4 -21.05)"/><path class="cls-1" d="M148.39,172.93V159.52h2v2.1h.17a3.29,3.29,0,0,1,1.35-1.67,4,4,0,0,1,2.25-.6,3.78,3.78,0,0,1,2.21.6,3.88,3.88,0,0,1,1.38,1.67h.15a4,4,0,0,1,1.54-1.66,4.74,4.74,0,0,1,2.47-.61,4,4,0,0,1,2.94,1.12A4.7,4.7,0,0,1,166,164v9h-2.06v-9a2.57,2.57,0,0,0-.81-2.13,3.08,3.08,0,0,0-1.92-.64,2.79,2.79,0,0,0-2.19.87,3,3,0,0,0-.77,2.14v8.73h-2.1v-9.18a2.43,2.43,0,0,0-.75-1.85,2.7,2.7,0,0,0-1.91-.71,2.81,2.81,0,0,0-1.5.44,3.16,3.16,0,0,0-1.11,1.18,3.43,3.43,0,0,0-.43,1.74v8.38Z" transform="translate(-2.4 -21.05)"/><path class="cls-1" d="M175.39,173.21a6.25,6.25,0,0,1-3.33-.86,5.68,5.68,0,0,1-2.17-2.4,8.27,8.27,0,0,1-.75-3.62,8.4,8.4,0,0,1,.75-3.64,5.85,5.85,0,0,1,2.12-2.45,5.64,5.64,0,0,1,3.18-.89,6.15,6.15,0,0,1,2.06.35,5.27,5.27,0,0,1,1.87,1.13,5.61,5.61,0,0,1,1.33,2.06,8.8,8.8,0,0,1,.5,3.16v.87H170.61v-1.78h8.24a4.41,4.41,0,0,0-.45-2,3.44,3.44,0,0,0-1.27-1.4,3.54,3.54,0,0,0-1.94-.52,3.64,3.64,0,0,0-2.13.61,4,4,0,0,0-1.38,1.57,4.64,4.64,0,0,0-.48,2.08v1.19a5.58,5.58,0,0,0,.53,2.57,3.81,3.81,0,0,0,1.47,1.6,4.44,4.44,0,0,0,2.19.54,4.49,4.49,0,0,0,1.47-.23,3,3,0,0,0,1.14-.7,3.1,3.1,0,0,0,.75-1.16l2,.56a4.32,4.32,0,0,1-1,1.78,5.25,5.25,0,0,1-1.84,1.18,6.73,6.73,0,0,1-2.45.42" transform="translate(-2.4 -21.05)"/><path class="cls-1" d="M186.15,164.86v8.07h-2.06V159.52h2v2.1h.18a3.85,3.85,0,0,1,1.42-1.65,4.51,4.51,0,0,1,2.49-.62,4.89,4.89,0,0,1,2.38.55,3.81,3.81,0,0,1,1.59,1.68,6.2,6.2,0,0,1,.57,2.83v8.52h-2.06v-8.38a3.49,3.49,0,0,0-.82-2.47,2.93,2.93,0,0,0-2.25-.89,3.48,3.48,0,0,0-1.76.44,2.92,2.92,0,0,0-1.22,1.24,4.09,4.09,0,0,0-.45,2" transform="translate(-2.4 -21.05)"/><path class="cls-1" d="M199.38,156.31h2.07v12.78a2.63,2.63,0,0,0,.26,1.31,1.29,1.29,0,0,0,.66.57,2.46,2.46,0,0,0,.86.14,3,3,0,0,0,.56,0l.35-.06.42,1.84a4.06,4.06,0,0,1-.59.17,4.88,4.88,0,0,1-.95.08,4.13,4.13,0,0,1-1.71-.38,3.45,3.45,0,0,1-1.38-1.14,3.32,3.32,0,0,1-.55-1.94Zm4.93,5h-6.95v-1.75h6.95Z" transform="translate(-2.4 -21.05)"/></svg>