<svg id="Warstwa_1" data-name="Warstwa 1" xmlns="http://www.w3.org/2000/svg" viewBox="0 0 1863 510"><defs><style>.cls-1{fill:#fff;}</style></defs><path class="cls-1" d="M1673.68,78.08c-3.11,1.68-6,3.54-8.92,5.43V219.74c2.87,1.86,5.81,3.72,8.92,5.39Z" transform="translate(-8)"/><path class="cls-1" d="M1759.31,242a158.73,158.73,0,0,0,24-3.57V64.8a163.94,163.94,0,0,0-24-3.57Z" transform="translate(-8)"/><path class="cls-1" d="M1650.72,94.32c-1.89,1.71-4,3.31-5.78,5.14V203.78c1.76,1.82,3.89,3.42,5.78,5.13Z" transform="translate(-8)"/><path class="cls-1" d="M1791.34,66.63v170c46.5-13.19,79.66-46.15,79.66-85s-33.16-71.8-79.66-85" transform="translate(-8)"/><path class="cls-1" d="M1746.79,60.32h-.07a170.29,170.29,0,0,0-24.7,1.82v179a170.28,170.28,0,0,0,24.7,1.83h.07Z" transform="translate(-8)"/><path class="cls-1" d="M1706.28,65.69c-4.84,1.24-9.5,2.62-14,4.26V233.28c4.53,1.64,9.19,3,14,4.26Z" transform="translate(-8)"/><polygon class="cls-1" points="274.79 5.55 274.79 172.56 116.51 5.55 0 5.55 0 299.28 103.32 299.28 103.32 121.2 274.04 299.28 378.08 299.28 378.08 5.55 274.79 5.55"/><path class="cls-1" d="M619.09,304.81H604.8q-48,0-84.06-10.28t-56.25-25.46a124.91,124.91,0,0,1-32.61-36.13Q419.4,212,415.76,194.26a183.65,183.65,0,0,1-3.65-37.12V145.7a188.26,188.26,0,0,1,3.48-37.12q3.45-17.37,15.54-38.1a118.38,118.38,0,0,1,32.08-35.55q20-14.8,56.41-24.84T604.8,0h14.29a382.54,382.54,0,0,1,62.46,4.74Q709.95,9.48,729.18,17a160.3,160.3,0,0,1,34.07,18q14.85,10.5,23.28,21.13a104.68,104.68,0,0,1,13.73,22.73,95,95,0,0,1,7,21.49,110.65,110.65,0,0,1,1.66,18.58V124H700.79q-12.48-45-89.74-45-91.26,0-91.26,68.7v4.73A73.76,73.76,0,0,0,524,177.28a75.47,75.47,0,0,0,13.92,23.31q9.69,11.43,28.59,18.14t44.86,6.71q22.71,0,40-4.52t26-10.09A50.66,50.66,0,0,0,692,197c3.88-5.53,6.22-9.47,7-11.83s1.45-5,2.2-7.91H808.88v6.3a109.13,109.13,0,0,1-3.69,27.47q-3.65,14-16.12,31.58a123.53,123.53,0,0,1-32,30.78q-19.62,13.27-55.33,22.33t-82.61,9.07" transform="translate(-8)"/><path class="cls-1" d="M1065.3,179.66H937.81v50.52H1065.3q32.25,0,32.24-25.28v-1.16q0-24.11-32.24-24.08m-6.59-107.42H937.81v41.49h120.9q27.84,0,27.85-20.54v-.8q0-20.11-27.85-20.15m-224.93,227V5.55h256.43q55,0,77.87,18.72t22.89,48v4.37q0,24.48-14.64,38.87t-32.24,18.76a97.11,97.11,0,0,1,20.31,7.5,118.26,118.26,0,0,1,19.81,13c7,5.54,12.43,13,16.49,22.51s6,20.25,6,32.35v4.77q0,84.86-115,84.87Z" transform="translate(-8)"/><path class="cls-1" d="M1332.75,77v50.56H1452.2q31.48,0,31.5-25.28v-.4q0-24.85-31.5-24.88Zm0,121.62V299.28h-104V5.55h247.65Q1591,5.55,1591.05,81v4.34a66,66,0,0,1-5.51,27.24,53.84,53.84,0,0,1-14.47,19.74,93.65,93.65,0,0,1-17.57,11.84,89.1,89.1,0,0,1-17.41,6.7q26,6.34,41,24.3t15,45.6v43.42q0,22.9,5.14,33.19v2H1491c-2.2-2.62-3.28-7.75-3.28-15.4V249.53q0-26.07-12.64-38.5t-42.69-12.43Z" transform="translate(-8)"/><polygon class="cls-1" points="49.08 416.94 49.08 474.13 48.43 474.13 11.56 416.94 3.65 416.94 3.65 489.57 11.83 489.57 11.83 432.53 12.47 432.53 49.24 489.57 57.12 489.57 57.12 416.94 49.08 416.94"/><path class="cls-1" d="M96.44,483.35a14.41,14.41,0,0,0,7.77-2,13.39,13.39,0,0,0,4.84-5,13.8,13.8,0,0,0,1.62-6.48v-7.69a4.27,4.27,0,0,1-2.17,1.17,32.76,32.76,0,0,1-3.82.87c-1.45.26-2.83.48-4.19.66l-3.24.43a30.45,30.45,0,0,0-5.68,1.35,10.07,10.07,0,0,0-4.19,2.81,7.47,7.47,0,0,0-1.59,5.06,7.62,7.62,0,0,0,3,6.59,12.64,12.64,0,0,0,7.64,2.22m-1.19,7.51a19.15,19.15,0,0,1-8.72-2,15,15,0,0,1-6.21-5.72A16.92,16.92,0,0,1,78,474.1a15,15,0,0,1,1.69-7.57,12.66,12.66,0,0,1,4.59-4.63,23.93,23.93,0,0,1,6.32-2.48c2.34-.54,4.67-1,7-1.34,3.08-.4,5.58-.73,7.5-.95a11.29,11.29,0,0,0,4.2-1.17,3.1,3.1,0,0,0,1.35-2.84v-.29c0-3.5-.88-6.19-2.67-8.16s-4.43-2.91-8-2.91-6.63.91-8.72,2.62A15.53,15.53,0,0,0,86.84,450l-7.37-2.81A18.53,18.53,0,0,1,92,435.53a27.36,27.36,0,0,1,7.74-1.13,30.71,30.71,0,0,1,5.61.62,17,17,0,0,1,6.15,2.55,14.54,14.54,0,0,1,5,5.75c1.32,2.59,2,6.05,2,10.38v35.88h-7.74v-7.39h-.41a14.92,14.92,0,0,1-7.54,7.25,17.53,17.53,0,0,1-7.47,1.42" transform="translate(-8)"/><path class="cls-1" d="M132.64,489.58V435.12h7.51v8.2h.54a12.86,12.86,0,0,1,5-6.56,14.05,14.05,0,0,1,8.18-2.51c.57,0,1.28,0,2.13,0s1.52.07,2,.11v8.52c-.27-.07-.88-.18-1.79-.33a15.91,15.91,0,0,0-3-.25A13,13,0,0,0,146.6,444a12.28,12.28,0,0,0-4.53,4.55,12.93,12.93,0,0,0-1.65,6.59v34.46Z" transform="translate(-8)"/><path class="cls-1" d="M186.08,483.21a12.77,12.77,0,0,0,8.55-2.87,17.25,17.25,0,0,0,5-7.58,30.61,30.61,0,0,0,1.62-10.13,31.38,31.38,0,0,0-1.62-10.2,17.3,17.3,0,0,0-5-7.61,14,14,0,0,0-17.1,0,17.3,17.3,0,0,0-5,7.61,31.38,31.38,0,0,0-1.62,10.2,30.61,30.61,0,0,0,1.62,10.13,17.25,17.25,0,0,0,5,7.58,12.77,12.77,0,0,0,8.55,2.87m0,7.51a20.91,20.91,0,0,1-12-3.5,23.23,23.23,0,0,1-8-9.84,39.12,39.12,0,0,1,0-29.61,23.38,23.38,0,0,1,8-9.87,22.32,22.32,0,0,1,24,0,23.66,23.66,0,0,1,8,9.87,39.49,39.49,0,0,1,0,29.61,23.51,23.51,0,0,1-8,9.84,20.91,20.91,0,0,1-12,3.5" transform="translate(-8)"/><path class="cls-1" d="M241,483.21a12,12,0,0,0,7.91-2.66,16,16,0,0,0,4.9-7.32,32.31,32.31,0,0,0,1.69-10.89,31.63,31.63,0,0,0-1.66-10.67,15.91,15.91,0,0,0-4.86-7.18,13.67,13.67,0,0,0-16.19.15,16.27,16.27,0,0,0-4.9,7.32,34.14,34.14,0,0,0,0,20.94,17.13,17.13,0,0,0,4.94,7.51,12.14,12.14,0,0,0,8.14,2.8m-1.05,7.51a18.73,18.73,0,0,1-11.15-3.46,22.87,22.87,0,0,1-7.57-9.8,42.07,42.07,0,0,1,0-29.87,22.69,22.69,0,0,1,7.6-9.76,19,19,0,0,1,11.26-3.43,15.09,15.09,0,0,1,7.81,1.75,14.74,14.74,0,0,1,4.42,4c1,1.5,1.8,2.7,2.37,3.64h.68V417h7.74v72.63H255.6v-8.38h-.95c-.57,1-1.39,2.26-2.43,3.75a14.45,14.45,0,0,1-4.5,4,15.24,15.24,0,0,1-7.81,1.75" transform="translate(-8)"/><path class="cls-1" d="M298.89,483.21a12.77,12.77,0,0,0,8.55-2.87,17.34,17.34,0,0,0,5-7.58A30.61,30.61,0,0,0,314,462.63a31.38,31.38,0,0,0-1.62-10.2,17.38,17.38,0,0,0-5-7.61,14,14,0,0,0-17.1,0,17.21,17.21,0,0,0-5,7.61,31.38,31.38,0,0,0-1.63,10.2,30.61,30.61,0,0,0,1.63,10.13,17.17,17.17,0,0,0,5,7.58,12.77,12.77,0,0,0,8.55,2.87m0,7.51a20.89,20.89,0,0,1-12-3.5,23.16,23.16,0,0,1-8-9.84,39.12,39.12,0,0,1,0-29.61,23.31,23.31,0,0,1,8-9.87,22.32,22.32,0,0,1,24,0,23.74,23.74,0,0,1,8,9.87,39.62,39.62,0,0,1,0,29.61,23.59,23.59,0,0,1-8,9.84,20.91,20.91,0,0,1-12,3.5" transform="translate(-8)"/><polygon class="cls-1" points="380.8 435.1 369.88 476.66 369.34 476.66 358.69 435.1 350.38 435.1 339.6 476.81 339.06 476.81 328.14 435.1 319.99 435.1 335.37 489.59 343.01 489.59 354.06 447.7 354.84 447.7 365.93 489.59 373.57 489.59 388.94 435.1 380.8 435.1"/><path class="cls-1" d="M426.71,490.72A21.6,21.6,0,0,1,406,477.42a35.15,35.15,0,0,1-2.84-14.64A36.24,36.24,0,0,1,406,448a23.39,23.39,0,0,1,8-10,20.29,20.29,0,0,1,12-3.61,22.4,22.4,0,0,1,7.77,1.42,19.61,19.61,0,0,1,7,4.59,22.66,22.66,0,0,1,5,8.38,38.41,38.41,0,0,1,1.86,12.86v3.53h-39v-7.25h31.09a18.72,18.72,0,0,0-1.72-8.19,13.31,13.31,0,0,0-4.8-5.72,12.55,12.55,0,0,0-7.3-2.11,13.15,13.15,0,0,0-8,2.47,16.14,16.14,0,0,0-5.21,6.41,20.33,20.33,0,0,0-1.79,8.42v4.84a24.91,24.91,0,0,0,2,10.46,14.84,14.84,0,0,0,5.58,6.48,15.35,15.35,0,0,0,8.25,2.22,15.78,15.78,0,0,0,5.54-.94,11.37,11.37,0,0,0,4.29-2.85,13.05,13.05,0,0,0,2.81-4.73l7.5,2.26a18,18,0,0,1-4,7.21A19.09,19.09,0,0,1,436,489a24.32,24.32,0,0,1-9.26,1.72" transform="translate(-8)"/><path class="cls-1" d="M540.83,439.65h-8.18a19,19,0,0,0-2.5-6.66,18.07,18.07,0,0,0-4.33-4.85,18.55,18.55,0,0,0-5.64-2.95,21.65,21.65,0,0,0-6.46-1,19.49,19.49,0,0,0-11.09,3.35,22.65,22.65,0,0,0-7.87,9.84q-2.89,6.45-2.91,15.92a39.05,39.05,0,0,0,2.91,15.91,22.65,22.65,0,0,0,7.87,9.84,19.46,19.46,0,0,0,11.09,3.31,21.62,21.62,0,0,0,6.46-1,18.55,18.55,0,0,0,5.64-2.95,18.21,18.21,0,0,0,4.33-4.88,19.4,19.4,0,0,0,2.5-6.63h8.18a30.44,30.44,0,0,1-3.35,9.94,26.34,26.34,0,0,1-6.05,7.47,26.08,26.08,0,0,1-8.11,4.66,28.74,28.74,0,0,1-9.6,1.6A26.49,26.49,0,0,1,498.38,486a30.36,30.36,0,0,1-10.58-12.89A47.62,47.62,0,0,1,484,453.28c0-7.69,1.28-14.28,3.82-19.86a30.3,30.3,0,0,1,10.58-12.93A26.76,26.76,0,0,1,513.72,416a29,29,0,0,1,9.6,1.56,26.89,26.89,0,0,1,8.11,4.66,27.5,27.5,0,0,1,6.05,7.47,30.44,30.44,0,0,1,3.35,10" transform="translate(-8)"/><path class="cls-1" d="M574.13,490.72a21.63,21.63,0,0,1-20.72-13.3,35.31,35.31,0,0,1-2.84-14.64A36.4,36.4,0,0,1,553.41,448a23.34,23.34,0,0,1,8-10,20.26,20.26,0,0,1,12-3.61,22.42,22.42,0,0,1,7.78,1.42,19.61,19.61,0,0,1,7,4.59,22.78,22.78,0,0,1,5,8.38,38.41,38.41,0,0,1,1.86,12.86v3.53h-39v-7.25h31.1a18.73,18.73,0,0,0-1.73-8.19,13.18,13.18,0,0,0-4.8-5.72,12.52,12.52,0,0,0-7.3-2.11,13.15,13.15,0,0,0-8,2.47,16.12,16.12,0,0,0-5.2,6.41,20.17,20.17,0,0,0-1.79,8.42v4.84a24.44,24.44,0,0,0,2,10.46,14.57,14.57,0,0,0,5.54,6.48,15.4,15.4,0,0,0,8.25,2.22,15.7,15.7,0,0,0,5.54-.94,11.33,11.33,0,0,0,4.3-2.85,13,13,0,0,0,2.8-4.73l7.5,2.26a18,18,0,0,1-4,7.21,19,19,0,0,1-6.9,4.84,24.28,24.28,0,0,1-9.26,1.72" transform="translate(-8)"/><path class="cls-1" d="M614.67,456.81v32.78h-7.78V435.1h7.51v8.53h.67a15.63,15.63,0,0,1,5.38-6.71,16.16,16.16,0,0,1,9.36-2.51,17.63,17.63,0,0,1,9,2.22,15.15,15.15,0,0,1,6,6.81A27.32,27.32,0,0,1,646.91,455v34.64h-7.77v-34c0-4.3-1-7.62-3.08-10a10.61,10.61,0,0,0-8.48-3.61,12.6,12.6,0,0,0-6.63,1.75,11.87,11.87,0,0,0-4.59,5.07,17.77,17.77,0,0,0-1.69,8.08" transform="translate(-8)"/><path class="cls-1" d="M664.56,422.05h7.77V474a11.36,11.36,0,0,0,.95,5.28,4.92,4.92,0,0,0,2.5,2.37,9.83,9.83,0,0,0,3.25.57,11.2,11.2,0,0,0,2.13-.18l1.28-.25,1.59,7.5a12,12,0,0,1-2.2.65,13.8,13.8,0,0,1-3.58.37,14.44,14.44,0,0,1-6.42-1.52,12.89,12.89,0,0,1-5.21-4.67,13.91,13.91,0,0,1-2.06-7.86Zm18.56,20.13h-26.2v-7.11h26.2Z" transform="translate(-8)"/><path class="cls-1" d="M694.83,489.58V435.12h7.51v8.2h.54a12.75,12.75,0,0,1,5-6.56,13.9,13.9,0,0,1,8.15-2.51c.57,0,1.28,0,2.12,0s1.53.07,2,.11v8.52q-.42-.1-1.8-.33a15.73,15.73,0,0,0-3-.25,13,13,0,0,0-6.56,1.64,12.28,12.28,0,0,0-4.53,4.55,12.93,12.93,0,0,0-1.65,6.59v34.46Z" transform="translate(-8)"/><path class="cls-1" d="M761.18,467.31v-32.2H769v54.45h-7.77v-9.21h-.54a17.52,17.52,0,0,1-5.51,7.06,15.29,15.29,0,0,1-9.5,2.88,15.85,15.85,0,0,1-8.41-2.26,14.72,14.72,0,0,1-5.78-6.81,27.19,27.19,0,0,1-2.1-11.51v-34.6h7.74v34.05c0,4,1,7.14,3.11,9.51a10.11,10.11,0,0,0,7.94,3.53,12.64,12.64,0,0,0,5.92-1.6,13.34,13.34,0,0,0,5.07-4.88,15.6,15.6,0,0,0,2.06-8.41" transform="translate(-8)"/><path class="cls-1" d="M783.16,489.58V435.12h7.5v8.49h.64a13.58,13.58,0,0,1,5.11-6.77,14.41,14.41,0,0,1,8.45-2.44,13.7,13.7,0,0,1,8.35,2.44,15.84,15.84,0,0,1,5.24,6.77h.5a15.4,15.4,0,0,1,5.85-6.7,16.63,16.63,0,0,1,9.29-2.51A14.62,14.62,0,0,1,845.18,439c2.87,3.06,4.33,7.76,4.33,14.17v36.46h-7.78V453.12c0-4-1-6.89-3.07-8.6a10.67,10.67,0,0,0-7.2-2.62,10.27,10.27,0,0,0-8.25,3.46,13.12,13.12,0,0,0-2.94,8.74v35.48H812.4v-37.3a10.26,10.26,0,0,0-2.81-7.5,9.66,9.66,0,0,0-7.2-2.88,9.84,9.84,0,0,0-5.64,1.75,12.48,12.48,0,0,0-4.23,4.81,14.87,14.87,0,0,0-1.59,7.06v34.06Z" transform="translate(-8)"/><path class="cls-1" d="M899,481.79h16.19c5.34,0,9.12-1.13,11.39-3.36a11.17,11.17,0,0,0,3.38-8.16,13.93,13.93,0,0,0-1.76-6.81,12.69,12.69,0,0,0-5-5,14.69,14.69,0,0,0-7.64-1.9H899Zm0-32.93h15.14a13.82,13.82,0,0,0,6.66-1.57,11.93,11.93,0,0,0,4.76-4.37,12.61,12.61,0,0,0,1.76-6.67,11.67,11.67,0,0,0-3.11-8.16c-2.06-2.22-5.34-3.35-9.8-3.35H899Zm-8.15,40.72V417h23.56q7.05,0,11.62,2.62a16.45,16.45,0,0,1,6.8,7,21.15,21.15,0,0,1,2.26,9.72,17.4,17.4,0,0,1-1.55,7.73,12.65,12.65,0,0,1-4,4.8,16.93,16.93,0,0,1-5.38,2.63v.72a12.58,12.58,0,0,1,6.22,2.34,16.3,16.3,0,0,1,5.24,6.12,20.14,20.14,0,0,1,2.1,9.68,20.59,20.59,0,0,1-2.3,9.84,16.34,16.34,0,0,1-7.27,6.92c-3.31,1.71-7.64,2.55-12.94,2.55Z" transform="translate(-8)"/><path class="cls-1" d="M966.12,483.35a14.41,14.41,0,0,0,7.77-2,13.29,13.29,0,0,0,4.83-5,13.69,13.69,0,0,0,1.63-6.48v-7.69a4.27,4.27,0,0,1-2.17,1.17,32.76,32.76,0,0,1-3.82.87c-1.45.26-2.83.48-4.19.66l-3.24.43a30.45,30.45,0,0,0-5.68,1.35,10.07,10.07,0,0,0-4.19,2.81,7.47,7.47,0,0,0-1.59,5.06,7.62,7.62,0,0,0,3,6.59,12.64,12.64,0,0,0,7.64,2.22m-1.19,7.51a19.15,19.15,0,0,1-8.72-2,15,15,0,0,1-6.21-5.72,16.92,16.92,0,0,1-2.3-9.07,15,15,0,0,1,1.69-7.57A12.66,12.66,0,0,1,954,461.9a23.93,23.93,0,0,1,6.32-2.48c2.34-.54,4.67-1,7-1.34,3.08-.4,5.58-.73,7.5-.95A11.17,11.17,0,0,0,979,456a3.09,3.09,0,0,0,1.36-2.84v-.29c0-3.5-.88-6.19-2.67-8.16s-4.43-2.91-8-2.91-6.63.91-8.72,2.62a15.53,15.53,0,0,0-4.43,5.61l-7.37-2.81a18.53,18.53,0,0,1,12.51-11.65,27.36,27.36,0,0,1,7.74-1.13A30.71,30.71,0,0,1,975,435a17,17,0,0,1,6.15,2.55,14.54,14.54,0,0,1,5,5.75q2,3.89,2,10.38v35.88h-7.74v-7.39h-.41a15,15,0,0,1-7.54,7.25,17.56,17.56,0,0,1-7.47,1.42" transform="translate(-8)"/><path class="cls-1" d="M1022.45,483.21a12,12,0,0,0,7.91-2.66,15.91,15.91,0,0,0,4.9-7.32,32.31,32.31,0,0,0,1.69-10.89,31.89,31.89,0,0,0-1.65-10.67,16,16,0,0,0-4.87-7.18,13.67,13.67,0,0,0-16.19.15,16.35,16.35,0,0,0-4.9,7.32,34.34,34.34,0,0,0,0,20.94,17.13,17.13,0,0,0,4.94,7.51,12.14,12.14,0,0,0,8.14,2.8m-1,7.51a18.74,18.74,0,0,1-11.16-3.46,23,23,0,0,1-7.57-9.8,42.07,42.07,0,0,1,0-29.87,22.71,22.71,0,0,1,7.61-9.76,18.92,18.92,0,0,1,11.25-3.43,15.09,15.09,0,0,1,7.81,1.75,14.91,14.91,0,0,1,4.43,4c1,1.5,1.79,2.7,2.36,3.64h.68V417h7.74v72.63h-7.47v-8.38h-.95c-.57,1-1.38,2.26-2.43,3.75a14.45,14.45,0,0,1-4.5,4,15.22,15.22,0,0,1-7.8,1.75" transform="translate(-8)"/><path class="cls-1" d="M1075.9,483.35a14.44,14.44,0,0,0,7.77-2,13.29,13.29,0,0,0,4.83-5,14.18,14.18,0,0,0,1.63-6.48v-7.69a4.27,4.27,0,0,1-2.17,1.17,32.76,32.76,0,0,1-3.82.87c-1.45.26-2.84.48-4.19.66l-3.24.43a30.45,30.45,0,0,0-5.68,1.35,10.07,10.07,0,0,0-4.19,2.81,7.47,7.47,0,0,0-1.59,5.06,7.62,7.62,0,0,0,3,6.59,12.64,12.64,0,0,0,7.64,2.22m-1.19,7.51a19.15,19.15,0,0,1-8.72-2,15,15,0,0,1-6.22-5.72,17,17,0,0,1-2.29-9.07,15,15,0,0,1,1.69-7.57,12.59,12.59,0,0,1,4.59-4.63,23.79,23.79,0,0,1,6.32-2.48c2.33-.54,4.67-1,7-1.34,3.07-.4,5.58-.73,7.5-.95a11.23,11.23,0,0,0,4.19-1.17,3.09,3.09,0,0,0,1.36-2.84v-.29c0-3.5-.92-6.19-2.67-8.16s-4.43-2.91-8-2.91-6.63.91-8.73,2.62a15.61,15.61,0,0,0-4.42,5.61l-7.37-2.81a18.54,18.54,0,0,1,12.5-11.65,27.47,27.47,0,0,1,7.74-1.13,30.72,30.72,0,0,1,5.62.62,17.06,17.06,0,0,1,6.15,2.55,14.54,14.54,0,0,1,5,5.75q2,3.89,2,10.38v35.88h-7.74v-7.39h-.41a15,15,0,0,1-7.54,7.25,17.59,17.59,0,0,1-7.47,1.42" transform="translate(-8)"/><path class="cls-1" d="M1128.55,427.74l8-16.46h9.05l-10.24,16.46Zm-8.68,29.07v32.78h-7.78V435.1h7.51v8.53h.67a15.63,15.63,0,0,1,5.38-6.71,16.16,16.16,0,0,1,9.36-2.51,17.63,17.63,0,0,1,9,2.22,15.15,15.15,0,0,1,6,6.81,27.32,27.32,0,0,1,2.13,11.51v34.64h-7.77v-34c0-4.3-1-7.62-3.08-10a10.61,10.61,0,0,0-8.48-3.61,12.6,12.6,0,0,0-6.63,1.75,11.87,11.87,0,0,0-4.59,5.07,17.77,17.77,0,0,0-1.69,8.08" transform="translate(-8)"/><path class="cls-1" d="M1192.39,435.1h7.77v54.45h-7.77Zm3.95-9.07a5.14,5.14,0,0,1-3.88-1.68,5.37,5.37,0,0,1-1.66-4,5.44,5.44,0,0,1,1.66-4,5.42,5.42,0,0,1,7.77,0,5.6,5.6,0,0,1,1.66,4,5.53,5.53,0,0,1-1.66,4,5.15,5.15,0,0,1-3.89,1.68" transform="translate(-8)"/><path class="cls-1" d="M1273.23,456.94l16.56,32.64h-9.46L1264,456.94Zm-31.74,32.64V417h22.78c5.24,0,9.57,1,13,2.88a18.06,18.06,0,0,1,7.5,7.94,26,26,0,0,1,2.44,11.47,25.61,25.61,0,0,1-2.44,11.37,17.65,17.65,0,0,1-7.47,7.79c-3.34,1.86-7.64,2.8-12.84,2.8H1246v-7.94h18.19a19.1,19.1,0,0,0,8.69-1.71,10.09,10.09,0,0,0,4.79-4.84,16.88,16.88,0,0,0,1.53-7.47,18,18,0,0,0-1.53-7.65,10.89,10.89,0,0,0-4.83-5.06,18.86,18.86,0,0,0-8.79-1.79h-14.36v64.84Z" transform="translate(-8)"/><path class="cls-1" d="M1319.67,483.21a12.79,12.79,0,0,0,8.56-2.87,17.24,17.24,0,0,0,5-7.58,30.36,30.36,0,0,0,1.63-10.13,31.11,31.11,0,0,0-1.63-10.2,17.28,17.28,0,0,0-5-7.61,14,14,0,0,0-17.11,0,17.38,17.38,0,0,0-5,7.61,31.38,31.38,0,0,0-1.62,10.2,30.61,30.61,0,0,0,1.62,10.13,17.34,17.34,0,0,0,5,7.58,12.77,12.77,0,0,0,8.55,2.87m0,7.51a20.86,20.86,0,0,1-12-3.5,23.16,23.16,0,0,1-8-9.84,39.12,39.12,0,0,1,0-29.61,23.31,23.31,0,0,1,8-9.87,22.3,22.3,0,0,1,24,0,23.46,23.46,0,0,1,8,9.87,39.62,39.62,0,0,1,0,29.61,23.31,23.31,0,0,1-8,9.84,20.86,20.86,0,0,1-12,3.5" transform="translate(-8)"/><polygon class="cls-1" points="1345.91 435.1 1345.91 442.89 1373.7 442.89 1373.7 443.48 1344.97 483.18 1344.97 489.59 1384.61 489.59 1384.61 481.8 1355.78 481.8 1355.78 481.21 1383.7 441.8 1383.7 435.1 1345.91 435.1"/><polygon class="cls-1" points="1453.44 435.1 1442.53 476.66 1442.02 476.66 1431.34 435.1 1423.03 435.1 1412.24 476.81 1411.7 476.81 1400.79 435.1 1392.64 435.1 1408.02 489.59 1415.66 489.59 1426.74 447.7 1427.49 447.7 1438.57 489.59 1446.21 489.59 1461.59 435.1 1453.44 435.1"/><path class="cls-1" d="M1498.69,483.21a12.77,12.77,0,0,0,8.55-2.87,17.25,17.25,0,0,0,5-7.58,30.61,30.61,0,0,0,1.62-10.13,31.38,31.38,0,0,0-1.62-10.2,17.3,17.3,0,0,0-5-7.61,14,14,0,0,0-17.1,0,17.3,17.3,0,0,0-5,7.61,31.38,31.38,0,0,0-1.62,10.2,30.61,30.61,0,0,0,1.62,10.13,17.25,17.25,0,0,0,5,7.58,12.82,12.82,0,0,0,8.55,2.87m0,7.51a20.91,20.91,0,0,1-12-3.5,23.23,23.23,0,0,1-8-9.84,39.24,39.24,0,0,1,0-29.61,23.38,23.38,0,0,1,8-9.87,22.32,22.32,0,0,1,24,0,23.37,23.37,0,0,1,8,9.87,39.49,39.49,0,0,1,0,29.61,23.22,23.22,0,0,1-8,9.84,20.91,20.91,0,0,1-12,3.5" transform="translate(-8)"/><path class="cls-1" d="M1537.27,426a5.41,5.41,0,0,1-3.92-1.68,5.76,5.76,0,0,1,0-8,5.28,5.28,0,0,1,3.92-1.67,5.16,5.16,0,0,1,3.89,1.67,5.76,5.76,0,0,1,0,8,5.28,5.28,0,0,1-3.89,1.68m-3.82,9.07h7.78v58.46a22.17,22.17,0,0,1-1.59,8.71,12.38,12.38,0,0,1-4.84,5.72,14.93,14.93,0,0,1-8.07,2h-1.56v-7.8h1.42c2.4,0,4.12-.76,5.21-2.25a10.62,10.62,0,0,0,1.65-6.38Z" transform="translate(-8)"/><path class="cls-1" d="M1587.29,467.31v-32.2h7.77v54.45h-7.77v-9.21h-.54a17.52,17.52,0,0,1-5.51,7.06,15.29,15.29,0,0,1-9.5,2.88,15.85,15.85,0,0,1-8.41-2.26,14.72,14.72,0,0,1-5.78-6.81,27.19,27.19,0,0,1-2.1-11.51v-34.6h7.74v34.05c0,4,1,7.14,3.11,9.51a10.11,10.11,0,0,0,7.94,3.53,12.64,12.64,0,0,0,5.92-1.6,13.63,13.63,0,0,0,5.07-4.88,15.6,15.6,0,0,0,2.06-8.41" transform="translate(-8)"/></svg>