<?xml version="1.0" encoding="UTF-8" standalone="no"?>
<!DOCTYPE svg PUBLIC "-//W3C//DTD SVG 1.1//EN"
 "http://www.w3.org/Graphics/SVG/1.1/DTD/svg11.dtd">
<!-- Generated by graphviz version 2.47.0 (20210316.0004)
 -->
<!-- Title: dependencies Pages: 1 -->
<svg width="1413pt" height="284pt"
 viewBox="0.00 0.00 1413.00 284.00" xmlns="http://www.w3.org/2000/svg" xmlns:xlink="http://www.w3.org/1999/xlink">
<g id="graph0" class="graph" transform="scale(1 1) rotate(0) translate(4 280)">
<title>dependencies</title>
<polygon fill="white" stroke="transparent" points="-4,4 -4,-280 1409,-280 1409,4 -4,4"/>
<text text-anchor="start" x="681.51" y="-42.4" font-family="Times-12" font-weight="bold" font-size="14.00">Legend</text>
<polygon fill="#ffffb3" stroke="transparent" points="468.5,-10 468.5,-30 488.5,-30 488.5,-10 468.5,-10"/>
<text text-anchor="start" x="492.13" y="-15.4" font-family="Times-12" font-size="14.00"> &#160;Declarations</text>
<polygon fill="#8dd3c7" stroke="transparent" points="581.5,-10 581.5,-30 601.5,-30 601.5,-10 581.5,-10"/>
<text text-anchor="start" x="605.23" y="-15.4" font-family="Times-12" font-size="14.00"> &#160;Module</text>
<polygon fill="#80b1d3" stroke="transparent" points="667.5,-10 667.5,-30 687.5,-30 687.5,-10 667.5,-10"/>
<text text-anchor="start" x="691.28" y="-15.4" font-family="Times-12" font-size="14.00"> &#160;Bootstrap</text>
<polygon fill="#fdb462" stroke="transparent" points="764.5,-10 764.5,-30 784.5,-30 784.5,-10 764.5,-10"/>
<text text-anchor="start" x="788.17" y="-15.4" font-family="Times-12" font-size="14.00"> &#160;Providers</text>
<polygon fill="#fb8072" stroke="transparent" points="860.5,-10 860.5,-30 880.5,-30 880.5,-10 860.5,-10"/>
<text text-anchor="start" x="884.23" y="-15.4" font-family="Times-12" font-size="14.00"> &#160;Exports</text>
<g id="clust1" class="cluster">
<title>cluster_AppModule</title>
<polygon fill="none" stroke="black" stroke-dasharray="1,5" points="8,-70 8,-268 1397,-268 1397,-70 8,-70"/>
</g>
<g id="clust12" class="cluster">
<title>cluster_AppModule_imports</title>
<polygon fill="none" stroke="black" points="1245,-78 1245,-130 1389,-130 1389,-78 1245,-78"/>
</g>
<g id="clust14" class="cluster">
<title>cluster_AppModule_bootstrap</title>
<polygon fill="none" stroke="black" points="604,-208 604,-260 728,-260 728,-208 604,-208"/>
</g>
<g id="clust2" class="cluster">
<title>cluster_AppModule_declarations</title>
<polygon fill="none" stroke="black" points="16,-78 16,-130 1237,-130 1237,-78 16,-78"/>
</g>
<!-- AboutComponent -->
<g id="node1" class="node">
<title>AboutComponent</title>
<polygon fill="#ffffb3" stroke="black" points="1229.33,-122 1112.67,-122 1112.67,-86 1229.33,-86 1229.33,-122"/>
<text text-anchor="middle" x="1171" y="-99.8" font-family="Times,serif" font-size="14.00">AboutComponent</text>
</g>
<!-- AppModule -->
<g id="node10" class="node">
<title>AppModule</title>
<polygon fill="#8dd3c7" stroke="black" points="707.66,-187 704.66,-191 683.66,-191 680.66,-187 624.34,-187 624.34,-151 707.66,-151 707.66,-187"/>
<text text-anchor="middle" x="666" y="-164.8" font-family="Times,serif" font-size="14.00">AppModule</text>
</g>
<!-- AboutComponent&#45;&gt;AppModule -->
<g id="edge1" class="edge">
<title>AboutComponent&#45;&gt;AppModule</title>
<path fill="none" stroke="black" d="M1171,-122.13C1171,-142.57 1171,-173 1171,-173 1171,-173 717.76,-173 717.76,-173"/>
<polygon fill="black" stroke="black" points="717.76,-169.5 707.76,-173 717.76,-176.5 717.76,-169.5"/>
</g>
<!-- AppComponent -->
<g id="node2" class="node">
<title>AppComponent</title>
<polygon fill="#ffffb3" stroke="black" points="1094.94,-122 989.06,-122 989.06,-86 1094.94,-86 1094.94,-122"/>
<text text-anchor="middle" x="1042" y="-99.8" font-family="Times,serif" font-size="14.00">AppComponent</text>
</g>
<!-- AppComponent&#45;&gt;AppModule -->
<g id="edge2" class="edge">
<title>AppComponent&#45;&gt;AppModule</title>
<path fill="none" stroke="black" d="M1042,-122.27C1042,-140.56 1042,-166 1042,-166 1042,-166 717.68,-166 717.68,-166"/>
<polygon fill="black" stroke="black" points="717.68,-162.5 707.68,-166 717.68,-169.5 717.68,-162.5"/>
</g>
<!-- DialogLegendComponent -->
<g id="node3" class="node">
<title>DialogLegendComponent</title>
<polygon fill="#ffffb3" stroke="black" points="971.92,-122 810.08,-122 810.08,-86 971.92,-86 971.92,-122"/>
<text text-anchor="middle" x="891" y="-99.8" font-family="Times,serif" font-size="14.00">DialogLegendComponent</text>
</g>
<!-- DialogLegendComponent&#45;&gt;AppModule -->
<g id="edge3" class="edge">
<title>DialogLegendComponent&#45;&gt;AppModule</title>
<path fill="none" stroke="black" d="M891,-122.01C891,-138.05 891,-159 891,-159 891,-159 717.79,-159 717.79,-159"/>
<polygon fill="black" stroke="black" points="717.79,-155.5 707.79,-159 717.79,-162.5 717.79,-155.5"/>
</g>
<!-- FooterComponent -->
<g id="node4" class="node">
<title>FooterComponent</title>
<polygon fill="#ffffb3" stroke="black" points="791.88,-122 674.12,-122 674.12,-86 791.88,-86 791.88,-122"/>
<text text-anchor="middle" x="733" y="-99.8" font-family="Times,serif" font-size="14.00">FooterComponent</text>
</g>
<!-- FooterComponent&#45;&gt;AppModule -->
<g id="edge4" class="edge">
<title>FooterComponent&#45;&gt;AppModule</title>
<path fill="none" stroke="black" d="M690.94,-122.11C690.94,-122.11 690.94,-140.99 690.94,-140.99"/>
<polygon fill="black" stroke="black" points="687.44,-140.99 690.94,-150.99 694.44,-140.99 687.44,-140.99"/>
</g>
<!-- FormComponent -->
<g id="node5" class="node">
<title>FormComponent</title>
<polygon fill="#ffffb3" stroke="black" points="655.67,-122 544.33,-122 544.33,-86 655.67,-86 655.67,-122"/>
<text text-anchor="middle" x="600" y="-99.8" font-family="Times,serif" font-size="14.00">FormComponent</text>
</g>
<!-- FormComponent&#45;&gt;AppModule -->
<g id="edge5" class="edge">
<title>FormComponent&#45;&gt;AppModule</title>
<path fill="none" stroke="black" d="M640,-122.11C640,-122.11 640,-140.99 640,-140.99"/>
<polygon fill="black" stroke="black" points="636.5,-140.99 640,-150.99 643.5,-140.99 636.5,-140.99"/>
</g>
<!-- HomeComponent -->
<g id="node6" class="node">
<title>HomeComponent</title>
<polygon fill="#ffffb3" stroke="black" points="525.55,-122 410.45,-122 410.45,-86 525.55,-86 525.55,-122"/>
<text text-anchor="middle" x="468" y="-99.8" font-family="Times,serif" font-size="14.00">HomeComponent</text>
</g>
<!-- HomeComponent&#45;&gt;AppModule -->
<g id="edge6" class="edge">
<title>HomeComponent&#45;&gt;AppModule</title>
<path fill="none" stroke="black" d="M468,-122.01C468,-138.05 468,-159 468,-159 468,-159 614.01,-159 614.01,-159"/>
<polygon fill="black" stroke="black" points="614.01,-162.5 624.01,-159 614.01,-155.5 614.01,-162.5"/>
</g>
<!-- MapComponent -->
<g id="node7" class="node">
<title>MapComponent</title>
<polygon fill="#ffffb3" stroke="black" points="392.49,-122 285.51,-122 285.51,-86 392.49,-86 392.49,-122"/>
<text text-anchor="middle" x="339" y="-99.8" font-family="Times,serif" font-size="14.00">MapComponent</text>
</g>
<!-- MapComponent&#45;&gt;AppModule -->
<g id="edge7" class="edge">
<title>MapComponent&#45;&gt;AppModule</title>
<path fill="none" stroke="black" d="M339,-122.27C339,-140.56 339,-166 339,-166 339,-166 614.25,-166 614.25,-166"/>
<polygon fill="black" stroke="black" points="614.25,-169.5 624.25,-166 614.25,-162.5 614.25,-169.5"/>
</g>
<!-- MenuComponent -->
<g id="node8" class="node">
<title>MenuComponent</title>
<polygon fill="#ffffb3" stroke="black" points="267.99,-122 154.01,-122 154.01,-86 267.99,-86 267.99,-122"/>
<text text-anchor="middle" x="211" y="-99.8" font-family="Times,serif" font-size="14.00">MenuComponent</text>
</g>
<!-- MenuComponent&#45;&gt;AppModule -->
<g id="edge8" class="edge">
<title>MenuComponent&#45;&gt;AppModule</title>
<path fill="none" stroke="black" d="M211,-122.13C211,-142.57 211,-173 211,-173 211,-173 614.01,-173 614.01,-173"/>
<polygon fill="black" stroke="black" points="614.01,-176.5 624.01,-173 614.01,-169.5 614.01,-176.5"/>
</g>
<!-- PanelComponent -->
<g id="node9" class="node">
<title>PanelComponent</title>
<polygon fill="#ffffb3" stroke="black" points="136.44,-122 23.56,-122 23.56,-86 136.44,-86 136.44,-122"/>
<text text-anchor="middle" x="80" y="-99.8" font-family="Times,serif" font-size="14.00">PanelComponent</text>
</g>
<!-- PanelComponent&#45;&gt;AppModule -->
<g id="edge9" class="edge">
<title>PanelComponent&#45;&gt;AppModule</title>
<path fill="none" stroke="black" d="M80,-122.01C80,-144.49 80,-180 80,-180 80,-180 614.33,-180 614.33,-180"/>
<polygon fill="black" stroke="black" points="614.33,-183.5 624.33,-180 614.33,-176.5 614.33,-183.5"/>
</g>
<!-- AppComponent  -->
<g id="node12" class="node">
<title>AppComponent </title>
<polygon fill="#80b1d3" stroke="black" points="720.44,-252 611.56,-252 611.56,-216 720.44,-216 720.44,-252"/>
<text text-anchor="middle" x="666" y="-229.8" font-family="Times,serif" font-size="14.00">AppComponent </text>
</g>
<!-- AppModule&#45;&gt;AppComponent  -->
<g id="edge11" class="edge">
<title>AppModule&#45;&gt;AppComponent </title>
<path fill="none" stroke="black" stroke-dasharray="1,5" d="M666,-187.11C666,-187.11 666,-205.99 666,-205.99"/>
<polygon fill="black" stroke="black" points="662.5,-205.99 666,-215.99 669.5,-205.99 662.5,-205.99"/>
</g>
<!-- AppRoutingModule -->
<g id="node11" class="node">
<title>AppRoutingModule</title>
<polygon fill="#8dd3c7" stroke="black" points="1381.27,-122 1378.27,-126 1357.27,-126 1354.27,-122 1252.73,-122 1252.73,-86 1381.27,-86 1381.27,-122"/>
<text text-anchor="middle" x="1317" y="-99.8" font-family="Times,serif" font-size="14.00">AppRoutingModule</text>
</g>
<!-- AppRoutingModule&#45;&gt;AppModule -->
<g id="edge10" class="edge">
<title>AppRoutingModule&#45;&gt;AppModule</title>
<path fill="none" stroke="black" d="M1317,-122.01C1317,-144.49 1317,-180 1317,-180 1317,-180 717.71,-180 717.71,-180"/>
<polygon fill="black" stroke="black" points="717.71,-176.5 707.71,-180 717.71,-183.5 717.71,-176.5"/>
</g>
</g>
</svg>
