<svg xmlns="http://www.w3.org/2000/svg" width="999.987" height="254.018" viewBox="0 0 264.58 67.209" fill="#273676"><path d="M236.559 10.273l-1.267.715v17.953l1.267.71V10.273m12.161 21.601c1.181-.082 2.314-.235 3.413-.47V8.526a24.98 24.98 0 0 0-3.413-.47v23.819m-15.409-19.458l-.821.677v13.748c.25.24.552.451.821.677V12.417m19.969-3.648v22.398c6.605-1.738 11.314-6.082 11.314-11.201s-4.709-9.46-11.314-11.197m-6.337-.832h-.01a26.15 26.15 0 0 0-3.509.24v23.584a26.15 26.15 0 0 0 3.509.24h.01V7.937"/><path d="M241.199 8.641l-1.992.562v21.525l1.992.562V8.641M39.026.72v22.01L16.547.72H0v38.71h14.675V15.961L38.921 39.43h14.775V.72h-14.67m47.763 39.427h-2.031c-4.541 0-8.525-.451-11.938-1.354s-6.082-2.021-7.987-3.355c-1.911-1.334-3.452-2.923-4.633-4.762s-1.944-3.538-2.289-5.098-.518-3.192-.518-4.892v-1.507c0-1.733.163-3.365.494-4.892s1.066-3.202 2.208-5.021c1.148-1.819 2.665-3.384 4.556-4.685s4.56-2.391 8.012-3.274 7.484-1.33 12.096-1.33h2.031c3.226 0 6.183.211 8.871.624s4.944.955 6.763 1.613 3.437 1.45 4.839 2.367 2.506 1.848 3.308 2.784a13.64 13.64 0 0 1 1.949 2.995c.504 1.056.83 2.002.989 2.832a13.52 13.52 0 0 1 .235 2.448v.677H98.391c-1.181-3.955-5.429-5.933-12.744-5.933-8.641 0-12.961 3.019-12.961 9.053v.624a9.11 9.11 0 0 0 .6 3.279c.399 1.042 1.061 2.064 1.978 3.072s2.271 1.8 4.062 2.391c1.785.59 3.907.883 6.37.883 2.151 0 4.041-.197 5.674-.595 1.627-.398 2.861-.84 3.692-1.33s1.526-1.09 2.083-1.819.883-1.248.989-1.56.206-.658.312-1.042h15.299v.83c0 1.181-.178 2.386-.523 3.619s-1.109 2.616-2.29 4.162-2.698 2.895-4.551 4.056-4.474 2.146-7.858 2.943-7.292 1.195-11.732 1.195m30.488-.718V.717h36.42c5.203 0 8.89.821 11.059 2.467s3.25 3.759 3.25 6.322v.576c0 2.151-.691 3.859-2.079 5.122s-2.914 2.093-4.579 2.472c1.042.245 2.002.571 2.885.989s1.824.989 2.813 1.719 1.767 1.714 2.343 2.967.854 2.669.854 4.263v.629c0 7.455-5.444 11.185-16.335 11.185zm31.946-29.92h-17.171v5.468h17.171c2.636 0 3.956-.902 3.956-2.707v-.106c0-1.767-1.32-2.655-3.956-2.655m.936 14.156h-18.107v6.658h18.107c3.053 0 4.58-1.109 4.58-3.331v-.154c0-2.117-1.527-3.173-4.58-3.173"/><path d="M188.14 26.162V39.43h-14.775V.72h35.172c10.858 0 16.287 3.312 16.287 9.937v.571c0 1.32-.264 2.515-.782 3.591s-1.205 1.944-2.055 2.602-1.685 1.181-2.496 1.56a13.38 13.38 0 0 1-2.472.883c2.463.557 4.402 1.623 5.828 3.202s2.131 3.581 2.131 6.01v5.722c0 2.011.245 3.471.73 4.373v.259h-15.092c-.312-.346-.466-1.022-.466-2.031v-4.527c0-2.29-.6-3.979-1.795-5.074s-3.216-1.637-6.063-1.637zm0-16.028v6.663h16.964c2.981 0 4.474-1.109 4.474-3.331v-.053c0-2.184-1.493-3.279-4.474-3.279H188.14M6.97 54.932v7.536h-.091l-5.237-7.536H.518v9.572H1.68v-7.517h.091l5.223 7.517h1.118v-9.572H6.97m5.422 9.744c-.456 0-.869-.085-1.238-.259a2.07 2.07 0 0 1-.883-.754c-.216-.326-.326-.723-.326-1.195 0-.408.081-.742.24-.997a1.72 1.72 0 0 1 .653-.611c.269-.144.571-.254.898-.326l.994-.178 1.066-.125c.269-.034.471-.08.595-.154s.193-.197.193-.374v-.038c0-.459-.125-.816-.379-1.074s-.629-.386-1.138-.386c-.528 0-.941.12-1.239.346-.298.235-.509.48-.629.739l-1.046-.37c.187-.435.437-.778.749-1.021s.658-.419 1.027-.515.739-.149 1.099-.149c.231 0 .499.029.797.082a2.54 2.54 0 0 1 .874.336c.283.168.518.422.706.758.187.342.278.797.278 1.368v4.728h-1.099v-.974h-.058c-.077.158-.201.326-.374.504s-.408.328-.696.451-.643.187-1.061.187m.168-.987c.437 0 .806-.088 1.104-.261a1.86 1.86 0 0 0 .686-.662c.154-.274.231-.557.231-.854V60.9c-.048.056-.149.109-.308.152s-.336.082-.543.117l-.595.085-.461.058a4.82 4.82 0 0 0-.807.178c-.244.088-.446.208-.595.371s-.226.389-.226.666c0 .386.139.672.428.869.283.192.648.294 1.084.294m5.141.81v-7.176h1.066v1.08h.077c.13-.355.365-.643.706-.864a2.09 2.09 0 0 1 1.162-.331l.303.005.278.014v1.123c-.038-.01-.125-.024-.254-.043a2.39 2.39 0 0 0-.422-.034 1.97 1.97 0 0 0-.931.216 1.68 1.68 0 0 0-.643.6c-.158.254-.235.542-.235.869V64.5h-1.104m7.586.144c-.648 0-1.214-.154-1.704-.461s-.869-.739-1.138-1.296-.413-1.205-.413-1.944c0-.749.139-1.402.413-1.959.269-.557.653-.989 1.138-1.301s1.056-.461 1.704-.461 1.214.154 1.704.461c.484.312.869.744 1.142 1.301s.408 1.21.408 1.959c0 .739-.139 1.387-.408 1.944s-.658.984-1.142 1.296c-.49.307-1.056.461-1.704.461m0-.989c.494 0 .897-.13 1.214-.379s.552-.586.706-.998a3.77 3.77 0 0 0 .231-1.334 3.85 3.85 0 0 0-.231-1.344c-.154-.418-.389-.749-.706-1.003s-.72-.384-1.214-.384-.898.13-1.214.384a2.28 2.28 0 0 0-.706 1.003 3.83 3.83 0 0 0-.231 1.344 3.76 3.76 0 0 0 .231 1.334c.154.413.389.744.706.998s.72.379 1.214.379m7.645.989c-.6 0-1.128-.154-1.584-.456s-.816-.734-1.075-1.291-.389-1.214-.389-1.973.129-1.406.389-1.963.619-.984 1.08-1.286.993-.451 1.598-.451c.466 0 .835.077 1.109.23a2.05 2.05 0 0 1 .629.523l.336.48h.096v-3.533h1.1v9.572h-1.061v-1.104h-.134l-.346.494c-.149.197-.36.374-.639.528s-.647.23-1.109.23m.149-.989c.442 0 .816-.115 1.124-.35s.537-.552.696-.965.24-.893.24-1.435-.081-1.003-.235-1.406-.389-.72-.691-.946-.682-.341-1.133-.341c-.466 0-.854.12-1.166.36-.307.235-.542.562-.696.965a3.83 3.83 0 0 0-.231 1.368c0 .514.077.974.235 1.392a2.25 2.25 0 0 0 .701.989c.307.245.696.37 1.156.37m8.228.988c-.648 0-1.214-.154-1.704-.461s-.869-.739-1.138-1.296c-.274-.557-.413-1.205-.413-1.944 0-.749.139-1.402.413-1.959s.653-.989 1.138-1.301 1.056-.461 1.704-.461 1.214.154 1.704.461c.484.312.869.744 1.142 1.301s.408 1.21.408 1.959c0 .739-.139 1.387-.408 1.944s-.658.984-1.142 1.296c-.49.307-1.056.461-1.704.461m0-.989c.494 0 .898-.13 1.214-.379s.553-.586.706-.998a3.79 3.79 0 0 0 .231-1.334 3.85 3.85 0 0 0-.231-1.344 2.27 2.27 0 0 0-.706-1.003c-.316-.254-.72-.384-1.214-.384s-.898.13-1.214.384a2.28 2.28 0 0 0-.706 1.003c-.154.413-.23.864-.23 1.344s.077.926.23 1.334.389.744.706.998.72.379 1.214.379"/><path d="M54.083 57.316l-1.551 5.477h-.077l-1.512-5.477h-1.181l-1.531 5.496h-.077l-1.551-5.496h-1.157l2.185 7.181h1.084l1.57-5.52h.11l1.575 5.52h1.084l2.185-7.181h-1.157m5.384 7.328c-.691 0-1.286-.154-1.786-.461a3.02 3.02 0 0 1-1.157-1.291c-.269-.557-.403-1.195-.403-1.93s.134-1.382.403-1.949.648-1.003 1.133-1.315 1.051-.475 1.699-.475a3.38 3.38 0 0 1 1.105.187 2.81 2.81 0 0 1 .998.605c.297.278.537.648.715 1.104s.264 1.022.264 1.695v.466h-5.535v-.955h4.416c0-.403-.081-.763-.244-1.08a1.79 1.79 0 0 0-.682-.754c-.292-.187-.638-.278-1.037-.278-.441 0-.821.11-1.138.326a2.16 2.16 0 0 0-.739.845 2.51 2.51 0 0 0-.254 1.109v.638c0 .542.091.998.279 1.378a2.01 2.01 0 0 0 .792.854c.336.192.725.293 1.171.293.288 0 .552-.043.787-.125s.437-.206.61-.374a1.68 1.68 0 0 0 .398-.624l1.066.298a2.34 2.34 0 0 1-.566.95c-.264.274-.591.485-.979.638s-.83.226-1.315.226m16.207-6.721h-1.161c-.068-.336-.188-.629-.356-.878s-.374-.466-.614-.638-.509-.302-.801-.389a3.26 3.26 0 0 0-.917-.134c-.581 0-1.104.149-1.574.442s-.84.725-1.118 1.296-.413 1.267-.413 2.098.139 1.526.413 2.098.648 1.003 1.118 1.296a2.91 2.91 0 0 0 1.574.437c.317 0 .619-.043.917-.13s.557-.216.801-.389a2.38 2.38 0 0 0 .614-.643 2.45 2.45 0 0 0 .356-.874h1.161c-.086.49-.244.926-.475 1.31s-.518.715-.859.984-.729.475-1.152.614a4.38 4.38 0 0 1-1.363.211c-.816 0-1.546-.197-2.179-.6a4.16 4.16 0 0 1-1.503-1.699c-.36-.734-.542-1.608-.542-2.616s.182-1.882.542-2.616.865-1.306 1.503-1.704 1.363-.595 2.179-.595a4.38 4.38 0 0 1 1.363.206 3.91 3.91 0 0 1 1.152.614 3.68 3.68 0 0 1 .859.984 3.78 3.78 0 0 1 .475 1.315m4.729 6.72c-.691 0-1.286-.154-1.785-.461-.504-.307-.888-.734-1.157-1.291s-.403-1.195-.403-1.93.134-1.382.403-1.949.648-1.003 1.133-1.315 1.051-.475 1.699-.475c.374 0 .739.062 1.104.187s.696.326.999.605.538.648.715 1.104.264 1.022.264 1.695v.466H77.84v-.955h4.416c0-.403-.082-.763-.245-1.08a1.79 1.79 0 0 0-.681-.754c-.297-.183-.639-.278-1.037-.278-.442 0-.821.11-1.138.326a2.16 2.16 0 0 0-.739.845c-.168.346-.254.715-.254 1.109v.638c0 .542.091.998.283 1.378a1.97 1.97 0 0 0 .788.854c.336.192.724.293 1.171.293a2.39 2.39 0 0 0 .788-.125 1.62 1.62 0 0 0 .609-.374 1.7 1.7 0 0 0 .399-.624l1.066.298a2.35 2.35 0 0 1-.566.95c-.263.268-.591.485-.979.638a3.69 3.69 0 0 1-1.316.226m5.756-4.465v4.32h-1.104v-7.181h1.066v1.123h.096a2.09 2.09 0 0 1 .763-.883c.346-.221.787-.331 1.33-.331.484 0 .912.096 1.277.293s.647.499.849.898.303.907.303 1.517V64.5h-1.105v-4.488c0-.566-.144-1.003-.436-1.32s-.696-.475-1.205-.475a1.89 1.89 0 0 0-.941.23 1.62 1.62 0 0 0-.653.667c-.158.293-.24.648-.24 1.066m9.722-1.92h-3.72v-.936h3.72zm-2.636-2.653h1.104v6.845c0 .31.043.542.134.696a.68.68 0 0 0 .355.312 1.47 1.47 0 0 0 .461.075c.125 0 .221-.01.302-.024l.183-.032.226.987c-.072.03-.177.059-.312.086-.134.034-.303.048-.509.048-.312 0-.614-.066-.912-.2a1.79 1.79 0 0 1-.739-.614c-.197-.275-.293-.619-.293-1.037v-7.143m4.3 8.894v-7.176h1.066v1.08h.077c.129-.355.365-.643.711-.864s.724-.331 1.156-.331l.302.005.279.014v1.123a3.35 3.35 0 0 0-.254-.043 2.39 2.39 0 0 0-.422-.034 1.97 1.97 0 0 0-.931.216 1.68 1.68 0 0 0-.643.6c-.159.254-.236.542-.236.869V64.5h-1.104m9.422-2.928v-4.243h1.104v7.175h-1.104V63.29h-.077c-.168.366-.427.678-.782.931s-.807.381-1.349.381a2.4 2.4 0 0 1-1.196-.298 2 2 0 0 1-.821-.898c-.202-.398-.297-.907-.297-1.517v-4.56h1.099v4.488c0 .523.149.941.441 1.253s.672.466 1.128.466c.274 0 .557-.072.84-.211a1.84 1.84 0 0 0 .72-.643c.192-.288.292-.658.292-1.109m3.124 2.927v-7.176h1.066v1.118h.091c.149-.384.393-.682.724-.893.336-.216.734-.322 1.2-.322.476 0 .869.106 1.186.322a2.15 2.15 0 0 1 .745.893h.072c.183-.37.461-.667.83-.883s.807-.331 1.32-.331c.644 0 1.167.202 1.574.6s.614 1.022.614 1.867V64.5h-1.104v-4.805c0-.528-.144-.907-.437-1.133a1.62 1.62 0 0 0-1.022-.346c-.504 0-.893.154-1.171.456s-.417.691-.417 1.152V64.5h-1.118v-4.916c0-.408-.134-.739-.399-.989s-.604-.379-1.022-.379a1.49 1.49 0 0 0-.802.23c-.245.153-.451.365-.6.634s-.226.581-.226.931V64.5h-1.104m15.29 0v-9.572h3.346c.668 0 1.219.115 1.651.346s.754.533.965.917a2.63 2.63 0 0 1 .321 1.282c0 .408-.077.749-.221 1.018a1.7 1.7 0 0 1-.571.634 2.49 2.49 0 0 1-.763.346v.096c.292.019.591.12.883.307a2.2 2.2 0 0 1 .744.806c.202.346.298.773.298 1.277 0 .48-.106.912-.327 1.296s-.561.686-1.032.912-1.085.336-1.838.336zm1.157-5.367h2.151c.35 0 .667-.067.946-.206s.509-.326.676-.576.25-.542.25-.878c0-.422-.149-.778-.442-1.075s-.758-.442-1.392-.442h-2.189zm0 4.339h2.3c.758 0 1.296-.149 1.618-.442.317-.298.48-.653.48-1.075 0-.322-.086-.624-.25-.898s-.398-.499-.705-.662-.668-.25-1.085-.25h-2.357v3.327m9.368 1.204c-.456 0-.869-.085-1.238-.259s-.667-.422-.883-.754-.326-.723-.326-1.195c0-.408.081-.742.24-.997a1.72 1.72 0 0 1 .653-.611 3.5 3.5 0 0 1 .898-.326l.994-.178 1.066-.125c.269-.034.471-.08.595-.154s.192-.197.192-.374v-.038c0-.459-.125-.816-.379-1.074s-.629-.386-1.138-.386c-.528 0-.941.12-1.239.346-.297.235-.509.48-.629.739l-1.046-.37c.187-.435.437-.778.749-1.021a2.82 2.82 0 0 1 1.028-.515 4.27 4.27 0 0 1 1.099-.149c.231 0 .499.029.797.082a2.54 2.54 0 0 1 .874.336c.283.168.518.422.706.758.187.342.278.797.278 1.368v4.728H138.1v-.974h-.058a1.98 1.98 0 0 1-.374.504c-.172.179-.408.328-.696.451s-.643.187-1.061.187m.168-.987c.437 0 .807-.088 1.104-.261.303-.171.528-.394.686-.662a1.66 1.66 0 0 0 .231-.854V60.9c-.048.056-.149.109-.308.152s-.336.082-.543.117l-.595.085-.461.058c-.288.04-.557.098-.807.178-.244.088-.446.208-.595.371s-.226.389-.226.666c0 .386.139.672.428.869.283.192.648.294 1.084.294m7.85.954c-.6 0-1.128-.154-1.584-.456s-.816-.734-1.076-1.291-.389-1.214-.389-1.973.13-1.406.389-1.963.619-.984 1.08-1.286.994-.451 1.599-.451c.466 0 .835.077 1.109.23a2.05 2.05 0 0 1 .629.523l.336.48h.096v-3.533h1.099v9.572h-1.061v-1.104h-.134a6.84 6.84 0 0 1-.346.494 1.99 1.99 0 0 1-.638.528c-.278.154-.648.23-1.109.23m.149-.989c.442 0 .816-.115 1.123-.35s.538-.552.696-.965.24-.893.24-1.435-.082-1.003-.236-1.406-.389-.72-.691-.946c-.308-.226-.682-.341-1.133-.341-.466 0-.854.12-1.166.36s-.543.562-.696.965-.23.864-.23 1.368c0 .514.076.974.235 1.392a2.25 2.25 0 0 0 .701.989c.312.245.696.37 1.157.37m7.423 1.02c-.456 0-.869-.085-1.239-.259s-.667-.422-.883-.754-.326-.723-.326-1.195c0-.408.082-.742.24-.997a1.72 1.72 0 0 1 .653-.611 3.49 3.49 0 0 1 .897-.326l.993-.178 1.066-.125c.269-.034.471-.08.596-.154s.192-.197.192-.374v-.038c0-.459-.129-.816-.379-1.074s-.629-.386-1.138-.386c-.528 0-.941.12-1.238.346-.298.235-.509.48-.629.739l-1.047-.37c.188-.435.437-.778.749-1.021s.658-.419 1.027-.515.74-.149 1.1-.149c.23 0 .499.029.796.082.303.053.596.168.874.336s.519.422.706.758c.188.342.279.797.279 1.368v4.728h-1.099v-.974h-.057c-.077.158-.202.326-.374.504s-.408.328-.696.451-.643.187-1.061.187m.168-.987c.437 0 .806-.088 1.104-.261a1.81 1.81 0 0 0 .686-.662 1.77 1.77 0 0 0 .231-.854V60.9c-.048.056-.149.109-.308.152a5.76 5.76 0 0 1-.542.117l-.596.085-.461.058a4.8 4.8 0 0 0-.806.178c-.245.088-.447.208-.596.371s-.226.389-.226.666c0 .386.139.672.428.869s.648.294 1.085.294m6.244-3.51v4.32h-1.105v-7.181h1.066v1.123h.096a2.09 2.09 0 0 1 .763-.883c.346-.221.787-.331 1.329-.331.485 0 .912.096 1.277.293s.648.499.85.898.302.907.302 1.517V64.5h-1.104v-4.488c0-.566-.144-1.003-.437-1.32s-.696-.475-1.204-.475c-.355 0-.667.077-.941.23a1.62 1.62 0 0 0-.653.667c-.159.293-.24.648-.24 1.066m1.233-3.831l1.142-2.17h1.286l-1.454 2.17h-.974m9.635-.217a.76.76 0 0 1-.552-.221.69.69 0 0 1-.235-.528c0-.206.077-.379.235-.528a.76.76 0 0 1 .552-.216c.216 0 .398.072.552.216a.71.71 0 0 1 .235.528c0 .206-.082.384-.235.528a.76.76 0 0 1-.552.221m-.562 1.195h1.104v7.176h-1.104v-7.176m6.962 7.173v-9.572h3.235c.744 0 1.358.13 1.839.379a2.44 2.44 0 0 1 1.066 1.046c.231.441.346.946.346 1.512s-.115 1.061-.346 1.498-.581.778-1.061 1.027-1.085.37-1.824.37h-2.621v-1.046h2.583c.509 0 .922-.077 1.234-.226s.542-.36.682-.638a2.16 2.16 0 0 0 .216-.984c0-.379-.072-.72-.216-1.008a1.47 1.47 0 0 0-.686-.667c-.316-.158-.73-.235-1.248-.235h-2.04V64.5zm4.507-4.301l2.352 4.301h-1.344l-2.319-4.301h1.31m6.599 4.445c-.648 0-1.214-.154-1.704-.461a3.12 3.12 0 0 1-1.138-1.296c-.274-.557-.413-1.205-.413-1.944 0-.749.139-1.402.413-1.959a3.17 3.17 0 0 1 1.138-1.301c.485-.312 1.056-.461 1.704-.461s1.214.154 1.704.461.869.744 1.142 1.301.408 1.21.408 1.959c0 .739-.139 1.387-.408 1.944a3.13 3.13 0 0 1-1.142 1.296c-.49.307-1.056.461-1.704.461m0-.989c.494 0 .898-.13 1.214-.379s.552-.586.706-.998a3.77 3.77 0 0 0 .23-1.334 3.87 3.87 0 0 0-.23-1.344c-.153-.418-.389-.749-.706-1.003s-.72-.384-1.214-.384-.898.13-1.214.384a2.28 2.28 0 0 0-.706 1.003c-.154.413-.23.864-.23 1.344s.077.926.23 1.334.389.744.706.998.72.379 1.214.379m4.864-6.339v1.027h3.946v.077l-4.08 5.232v.845h5.631V63.47h-4.095v-.077l3.965-5.194v-.883h-5.367m15.281 0l-1.55 5.477h-.072l-1.517-5.477h-1.181l-1.531 5.496h-.077l-1.55-5.496h-1.157l2.184 7.181h1.085l1.574-5.52h.106l1.574 5.52h1.085l2.184-7.181h-1.157m5.28 7.328c-.648 0-1.214-.154-1.704-.461a3.12 3.12 0 0 1-1.138-1.296c-.274-.557-.413-1.205-.413-1.944 0-.749.139-1.402.413-1.959a3.17 3.17 0 0 1 1.138-1.301c.485-.312 1.056-.461 1.704-.461s1.214.154 1.704.461.869.744 1.142 1.301.408 1.21.408 1.959c0 .739-.139 1.387-.408 1.944a3.13 3.13 0 0 1-1.142 1.296c-.49.307-1.056.461-1.704.461m0-.989c.494 0 .898-.13 1.214-.379s.552-.586.706-.998a3.77 3.77 0 0 0 .23-1.334 3.87 3.87 0 0 0-.23-1.344c-.153-.418-.389-.749-.706-1.003s-.72-.384-1.214-.384-.898.13-1.214.384a2.28 2.28 0 0 0-.706 1.003c-.154.413-.23.864-.23 1.344s.077.926.23 1.334.389.744.706.998.725.379 1.214.379m4.945-6.339h1.104v7.704c0 .442-.077.826-.226 1.147a1.66 1.66 0 0 1-.686.754c-.302.178-.686.264-1.147.264h-.221v-1.027h.202c.341 0 .586-.101.739-.298s.235-.48.235-.84zm.542-1.195a.8.8 0 0 1-.557-.221.7.7 0 0 1-.23-.528.7.7 0 0 1 .23-.528.78.78 0 0 1 .557-.221.76.76 0 0 1 .552.221.7.7 0 0 1 .23.528.7.7 0 0 1-.23.528.78.78 0 0 1-.552.221m7.106 5.451v-4.243h1.104v7.175h-1.104V63.29h-.077c-.168.366-.427.678-.782.931s-.806.381-1.349.381a2.4 2.4 0 0 1-1.195-.298c-.35-.197-.624-.494-.821-.898s-.298-.907-.298-1.517v-4.56h1.099v4.488c0 .523.149.941.442 1.253s.672.466 1.128.466c.274 0 .557-.072.84-.211s.523-.355.72-.643.293-.658.293-1.109"/></svg>